<?xml version="1.0" encoding="UTF-8" standalone="no"?><!DOCTYPE svg PUBLIC "-//W3C//DTD SVG 1.1//EN" "http://www.w3.org/Graphics/SVG/1.1/DTD/svg11.dtd"><svg width="100%" height="100%" viewBox="0 0 233 58" version="1.1" xmlns="http://www.w3.org/2000/svg" xmlns:xlink="http://www.w3.org/1999/xlink" xml:space="preserve" style="fill-rule:evenodd;clip-rule:evenodd;stroke-linejoin:round;stroke-miterlimit:1.41421;"><g><g><path d="M0,26.698l20.347,20.346l8.255,-8.255l8.256,8.255l20.346,-20.346l-57.204,0Zm20.347,15.853l-12.676,-12.676l12.018,0l6.667,6.667l-6.009,6.009Zm3.835,-12.676l8.84,0l-4.42,4.42l-4.42,-4.42Zm6.667,6.667l6.667,-6.667l12.018,0l-12.676,12.676l-6.009,-6.009Z" style="fill:#ccc;fill-rule:nonzero;"/><path d="M53.369,47.044l-18.758,-18.758l20.347,-20.346l0,18.758l18.758,0l-20.347,20.346Zm-14.264,-18.758l14.264,14.265l12.676,-12.676l-14.265,0l0,-14.264l-12.675,12.675Z" style="fill:url(#_Linear1);fill-rule:nonzero;"/></g><path d="M87.395,8.488l3.58,0l3.838,13.728l0.074,0l2.509,-11.403l-1.882,-0.111l0,-2.952l7.417,0l0,2.841l-1.217,0.074c-0.489,0.046 -0.893,0.406 -0.997,0.886l-3.506,14.761l-5.314,0l-3.026,-10.997l-0.11,0l-3.137,10.997l-5.425,0l-3.727,-14.724c-0.075,-0.26 -0.207,-0.5 -0.388,-0.702c-0.198,-0.144 -0.437,-0.222 -0.682,-0.221l-1.07,-0.074l0,-2.841l8.45,0l0,2.952l-2.066,0.111l2.546,11.329l0.074,0l4.059,-13.654Z" style="fill:#333;fill-rule:nonzero;"/><path d="M111.714,7.196c1.845,0 3.309,0.449 4.392,1.347c1.082,0.899 1.623,2.159 1.623,3.783c0.039,1.903 -0.876,3.705 -2.435,4.797c-0.774,0.507 -1.62,0.892 -2.51,1.144c-1.812,0.515 -3.689,0.763 -5.572,0.738c0.018,1.163 0.45,2.282 1.218,3.156c0.738,0.799 1.869,1.198 3.395,1.198c1.525,0 3.05,-0.541 4.576,-1.623l1.402,2.989c-0.75,0.589 -1.591,1.05 -2.491,1.365c-1.278,0.487 -2.637,0.725 -4.004,0.701c-3.001,0 -5.203,-0.83 -6.605,-2.491c-1.402,-1.66 -2.104,-3.942 -2.104,-6.845c0,-2.902 0.8,-5.338 2.399,-7.307c1.599,-1.968 3.838,-2.952 6.716,-2.952Zm-1.679,8.432c0.901,-0.161 1.754,-0.527 2.491,-1.07c0.688,-0.423 1.119,-1.166 1.144,-1.974c0,-1.5 -0.738,-2.251 -2.214,-2.251c-1.273,-0.054 -2.483,0.572 -3.174,1.642c-0.762,1.172 -1.184,2.533 -1.218,3.931c0.996,-0.016 1.989,-0.109 2.971,-0.278l0,0Z" style="fill:#333;fill-rule:nonzero;"/><path d="M124.852,0l0,23.249l2.103,0.11l0,2.953l-8.783,0l0,-2.805l1.218,-0.111c0.005,0 0.009,0 0.014,0c0.583,0 1.063,-0.479 1.063,-1.062c0,-0.04 -0.003,-0.079 -0.007,-0.118l0,-18.194c0,-0.54 -0.308,-0.836 -0.922,-0.885l-1.292,-0.074l0,-3.063l6.606,0Z" style="fill:#333;fill-rule:nonzero;"/><path d="M133.781,0l0,23.249l2.104,0.11l0,2.953l-8.783,0l0,-2.805l1.218,-0.111c0.004,0 0.009,0 0.014,0c0.583,0 1.063,-0.479 1.063,-1.062c0,-0.04 -0.003,-0.079 -0.007,-0.118l0,-18.194c0,-0.54 -0.308,-0.836 -0.923,-0.885l-1.291,-0.074l0,-3.063l6.605,0Z" style="fill:#333;fill-rule:nonzero;"/><path d="M88.946,52.586c-1.353,1.279 -3.469,1.918 -6.347,1.919c-2.879,0 -5.13,-0.406 -6.754,-1.218l0,-5.129l3.506,-0.295l0,1.771c-0.038,0.606 0.344,1.164 0.923,1.347c0.822,0.265 1.684,0.383 2.546,0.351c1.574,0 2.681,-0.474 3.322,-1.421c0.639,-0.947 0.959,-2.282 0.959,-4.004l0,-2.03c-1.181,1.378 -2.817,2.067 -4.908,2.067c-1.168,0.025 -2.326,-0.228 -3.377,-0.739c-0.922,-0.447 -1.706,-1.136 -2.269,-1.992c-1.086,-1.775 -1.637,-3.825 -1.587,-5.905c0,-3.223 0.873,-5.664 2.62,-7.325c1.747,-1.661 4.072,-2.491 6.975,-2.491c2.345,-0.013 4.667,0.452 6.827,1.365l0,13.691c0,2.092 -0.025,3.433 -0.074,4.023c-0.222,2.731 -1.009,4.736 -2.362,6.015Zm-1.845,-13.507l0,-7.934c-0.953,-0.309 -1.95,-0.459 -2.952,-0.443c-1.357,-0.069 -2.659,0.558 -3.451,1.661c-0.8,1.107 -1.199,2.608 -1.199,4.502c0,3.888 1.279,5.831 3.838,5.831c0.983,0.027 1.941,-0.323 2.675,-0.978c0.736,-0.674 1.135,-1.642 1.089,-2.639l0,0Z" style="fill:#333;fill-rule:nonzero;"/><path d="M111.531,43.693l0,2.915l-5.979,0l0,-2.399c-1.353,1.919 -3.346,2.878 -5.978,2.878c-3.813,0 -5.72,-2.128 -5.72,-6.384l0,-8.524c0,-0.665 -0.307,-1.009 -0.923,-1.034l-1.18,-0.073l0,-3.027l6.494,0l0,11.698c0,1.305 0.185,2.289 0.554,2.953c0.369,0.664 1.132,0.996 2.288,0.996c1.037,0.047 2.047,-0.341 2.786,-1.07c0.688,-0.681 1.069,-1.615 1.052,-2.584l0,-7.785c0.027,-0.292 -0.044,-0.585 -0.203,-0.831c-0.194,-0.184 -0.453,-0.284 -0.72,-0.277l-1.181,-0.073l0,-3.027l6.495,0l0,14.466c-0.02,0.075 -0.031,0.152 -0.031,0.229c0,0.465 0.383,0.849 0.849,0.849c0.035,0 0.07,-0.003 0.105,-0.007l1.292,0.111Z" style="fill:#333;fill-rule:nonzero;"/><path d="M118.21,28.045l0,15.5l2.103,0.11l0,2.953l-8.783,0l0,-2.805l1.218,-0.11c0.004,0 0.009,0 0.013,0c0.584,0 1.064,-0.48 1.064,-1.064c0,-0.039 -0.002,-0.078 -0.007,-0.117l0,-10.259c0.033,-0.298 -0.039,-0.598 -0.203,-0.849c-0.199,-0.17 -0.459,-0.25 -0.719,-0.221l-1.292,-0.075l0,-3.062l6.606,-0.001Zm-4.65,-3.192c-0.519,-0.508 -0.8,-1.211 -0.775,-1.937c-0.001,-0.029 -0.001,-0.057 -0.001,-0.086c0,-1.473 1.211,-2.684 2.684,-2.684c0.04,0 0.081,0.001 0.121,0.002c0.763,-0.028 1.504,0.259 2.049,0.794c0.525,0.52 0.812,1.235 0.793,1.974c0.024,0.729 -0.265,1.434 -0.793,1.937c-0.555,0.515 -1.293,0.787 -2.049,0.757c-0.75,0.032 -1.483,-0.241 -2.029,-0.757Z" style="fill:#333;fill-rule:nonzero;"/><path d="M119.981,31.035l0,-2.99l6.236,0l0,2.399c1.247,-1.898 3.395,-3.017 5.665,-2.952c2.399,0 4.016,0.984 4.853,2.952c1.229,-1.888 3.356,-3.008 5.609,-2.952c1.771,0 3.137,0.535 4.096,1.606c0.96,1.07 1.439,2.675 1.439,4.815l0,9.632l2.104,0.11l0,2.953l-8.783,0l0,-2.805l1.218,-0.11c0.291,-0.017 0.569,-0.127 0.793,-0.314c0.191,-0.248 0.289,-0.555 0.277,-0.867l0,-7.64c0,-1.352 -0.154,-2.354 -0.461,-3.007c-0.308,-0.652 -1.028,-0.978 -2.159,-0.978c-1.132,0 -1.999,0.345 -2.602,1.033c-0.633,0.779 -0.956,1.765 -0.904,2.768l0,8.857l2.03,0.11l0,2.953l-8.71,0l0,-2.805l1.218,-0.11c0.297,-0.02 0.58,-0.13 0.812,-0.314c0.203,-0.255 0.296,-0.581 0.258,-0.904l0,-7.603c0,-1.352 -0.153,-2.354 -0.461,-3.007c-0.308,-0.652 -1.034,-0.978 -2.177,-0.978c-1.144,0 -2.011,0.357 -2.602,1.07c-0.603,0.751 -0.917,1.694 -0.885,2.657l0,8.931l1.992,0.11l0,2.953l-8.709,0l0,-2.805l1.218,-0.11c0.296,-0.02 0.58,-0.129 0.812,-0.314c0.203,-0.255 0.296,-0.581 0.258,-0.904l0.037,0l0,-10.186c0.03,-0.303 -0.041,-0.608 -0.203,-0.867c-0.193,-0.184 -0.452,-0.283 -0.719,-0.277l-1.55,-0.11Z" style="fill:#333;fill-rule:nonzero;"/><path d="M166.478,28.784l0,13.728c-0.03,0.286 0.042,0.573 0.203,0.811c0.199,0.174 0.456,0.266 0.72,0.259l1.181,0.074l0,2.952l-5.868,0l0,-2.14l-0.11,-0.038c-1.106,1.705 -3.025,2.714 -5.056,2.657c-2.51,0 -4.367,-0.799 -5.573,-2.398c-1.205,-1.599 -1.808,-3.788 -1.808,-6.569c0,-3.345 0.812,-5.953 2.436,-7.823c1.623,-1.869 4.059,-2.804 7.306,-2.805c2.25,0.031 4.476,0.468 6.569,1.292l0,0Zm-4.28,11.956l0,-9.557c-0.903,-0.359 -1.872,-0.523 -2.842,-0.481c-1.649,0 -2.842,0.665 -3.58,1.993c-0.737,1.329 -1.106,3.088 -1.106,5.277c0,3.986 1.279,5.979 3.837,5.979c0.98,0.038 1.936,-0.314 2.657,-0.978c0.648,-0.562 1.024,-1.376 1.034,-2.233l0,0Z" style="fill:#333;fill-rule:nonzero;"/><path d="M170.869,42.475l0,-10.222c0.028,-0.292 -0.044,-0.585 -0.203,-0.831c-0.193,-0.184 -0.452,-0.284 -0.719,-0.277l-1.55,-0.111l0,-2.989l6.237,0l0,2.768c0.452,-0.971 1.168,-1.796 2.066,-2.38c0.956,-0.634 2.083,-0.962 3.229,-0.941c1.21,-0.002 2.403,0.276 3.488,0.812l0,5.498l-3.432,0.259l0,-1.698c0,-0.491 -0.124,-0.799 -0.37,-0.922c-0.315,-0.132 -0.655,-0.195 -0.996,-0.185c-0.922,-0.027 -1.809,0.359 -2.417,1.052c-0.641,0.74 -0.978,1.696 -0.941,2.675l0,8.562l3.21,0.148l0,2.915l-9.89,0l0,-2.805l1.218,-0.11c0.296,-0.02 0.58,-0.13 0.812,-0.314c0.203,-0.255 0.296,-0.581 0.258,-0.904l0,0Z" style="fill:#333;fill-rule:nonzero;"/><path d="M199.949,28.784l0,13.728c-0.031,0.286 0.041,0.573 0.203,0.811c0.199,0.174 0.456,0.266 0.719,0.259l1.181,0.074l0,2.952l-5.868,0l0,-2.14l-0.11,-0.038c-1.106,1.705 -3.025,2.714 -5.056,2.657c-2.509,0 -4.367,-0.799 -5.572,-2.398c-1.206,-1.599 -1.809,-3.788 -1.809,-6.569c0,-3.345 0.812,-5.953 2.436,-7.823c1.624,-1.869 4.059,-2.804 7.307,-2.805c2.25,0.031 4.475,0.468 6.569,1.292Zm-4.281,11.956l0,-9.557c-0.903,-0.359 -1.871,-0.523 -2.842,-0.481c-1.648,0 -2.842,0.665 -3.579,1.993c-0.738,1.329 -1.107,3.088 -1.107,5.277c0,3.986 1.279,5.979 3.838,5.979c0.979,0.038 1.935,-0.314 2.657,-0.978c0.647,-0.562 1.024,-1.376 1.033,-2.233l0,0Z" style="fill:#333;fill-rule:nonzero;"/><path d="M211.314,27.492c1.845,0 3.309,0.449 4.391,1.347c1.083,0.898 1.624,2.159 1.624,3.783c0.038,1.903 -0.876,3.704 -2.435,4.797c-0.774,0.506 -1.62,0.892 -2.51,1.144c-1.812,0.514 -3.689,0.763 -5.572,0.738c0.018,1.163 0.45,2.282 1.218,3.155c0.738,0.8 1.869,1.2 3.395,1.2c1.525,0 3.05,-0.542 4.576,-1.624l1.402,2.989c-0.75,0.589 -1.591,1.05 -2.491,1.365c-1.278,0.487 -2.637,0.725 -4.004,0.701c-3.001,0 -5.203,-0.83 -6.605,-2.49c-1.403,-1.661 -2.104,-3.943 -2.104,-6.846c0,-2.902 0.8,-5.338 2.399,-7.307c1.599,-1.968 3.837,-2.952 6.716,-2.952Zm-1.679,8.432c0.901,-0.161 1.753,-0.527 2.491,-1.07c0.688,-0.423 1.119,-1.166 1.144,-1.974c0,-1.5 -0.738,-2.251 -2.214,-2.251c-1.273,-0.054 -2.483,0.572 -3.174,1.642c-0.762,1.172 -1.184,2.533 -1.218,3.93c0.996,-0.016 1.989,-0.109 2.971,-0.277Z" style="fill:#333;fill-rule:nonzero;"/><path d="M227.33,30.85c-0.688,-0.237 -1.413,-0.35 -2.14,-0.332c-0.716,-0.036 -1.423,0.165 -2.012,0.572c-0.468,0.314 -0.751,0.839 -0.756,1.402c-0.024,0.447 0.071,0.893 0.277,1.292c0.214,0.336 0.513,0.609 0.867,0.793c0.706,0.355 1.448,0.634 2.214,0.831c0.861,0.234 1.501,0.419 1.919,0.554c0.539,0.187 1.064,0.415 1.568,0.682c0.535,0.252 1.017,0.602 1.421,1.033c0.877,0.952 1.341,2.213 1.292,3.506c0,1.845 -0.671,3.29 -2.011,4.336c-1.342,1.047 -3.045,1.569 -5.112,1.568c-3.002,0 -5.265,-0.381 -6.79,-1.143l0,-5.13l3.321,-0.259l0,1.772c0,1.083 1.034,1.624 3.1,1.624c2.067,0 3.1,-0.751 3.1,-2.251c0.017,-0.498 -0.177,-0.981 -0.535,-1.329c-0.297,-0.305 -0.656,-0.544 -1.052,-0.701c-0.344,-0.123 -0.756,-0.246 -1.236,-0.369c-0.479,-0.123 -0.947,-0.246 -1.402,-0.369c-0.501,-0.138 -0.994,-0.304 -1.476,-0.498c-0.61,-0.25 -1.196,-0.552 -1.753,-0.904c-1.255,-0.812 -1.882,-2.171 -1.882,-4.078c0,-1.906 0.677,-3.376 2.03,-4.41c1.352,-1.033 3.056,-1.549 5.111,-1.55c2.122,0.017 4.212,0.522 6.107,1.476l0,4.429l-3.321,0.258l0,-1.55c0.035,-0.561 -0.315,-1.079 -0.849,-1.255Z" style="fill:#333;fill-rule:nonzero;"/><path d="M121.7,57.194l0,-0.729l0.297,-0.027c0.174,-0.018 0.261,-0.102 0.261,-0.252l0,-4.185l-0.513,-0.027l0,-0.765l4.347,0l0,1.494l-0.918,0.063l0,-0.36c0,-0.102 -0.015,-0.174 -0.045,-0.216c-0.03,-0.042 -0.102,-0.063 -0.216,-0.063l-1.557,0l0,1.593l2.214,0l0,0.918l-2.214,0l0,1.764l0.801,0.027l0,0.765l-2.457,0Z" style="fill:#afafaf;fill-rule:nonzero;"/><path d="M127.739,57.194l0,-0.729l0.297,-0.027c0.174,-0.018 0.261,-0.102 0.261,-0.252l0,-4.185l-0.513,-0.027l0,-0.765l2.457,0c0.696,0 1.23,0.129 1.602,0.387c0.372,0.258 0.558,0.681 0.558,1.269c0,0.408 -0.107,0.744 -0.32,1.008c-0.213,0.264 -0.466,0.456 -0.76,0.576c0.216,0.078 0.387,0.261 0.513,0.549l0.648,1.413l0.513,0.018l0,0.765l-2.223,0l0,-0.729l0.261,-0.027c0.138,-0.018 0.207,-0.072 0.207,-0.162c0,-0.036 -0.012,-0.078 -0.036,-0.126l-0.423,-0.9c-0.066,-0.15 -0.14,-0.256 -0.221,-0.319c-0.081,-0.063 -0.196,-0.095 -0.346,-0.095l-0.819,0l0,1.566l0.585,0.027l0,0.765l-2.241,0Zm1.656,-3.213l0.783,0c0.738,0 1.107,-0.33 1.107,-0.99c0,-0.378 -0.098,-0.624 -0.293,-0.738c-0.195,-0.114 -0.508,-0.171 -0.94,-0.171l-0.657,0l0,1.899Z" style="fill:#afafaf;fill-rule:nonzero;"/><path d="M137.184,51.101c0.711,0 1.307,0.252 1.787,0.756c0.48,0.504 0.72,1.274 0.72,2.309c0,1.035 -0.239,1.818 -0.716,2.349c-0.477,0.531 -1.122,0.796 -1.935,0.796c-0.813,0 -1.45,-0.264 -1.912,-0.792c-0.462,-0.528 -0.693,-1.296 -0.693,-2.304c0,-0.552 0.081,-1.036 0.243,-1.453c0.162,-0.417 0.375,-0.74 0.639,-0.968c0.534,-0.462 1.156,-0.693 1.867,-0.693Zm-1.624,3.069c0,1.488 0.516,2.232 1.548,2.232c0.552,0 0.939,-0.228 1.161,-0.684c0.204,-0.402 0.306,-0.894 0.306,-1.476c0,-0.522 -0.09,-1.002 -0.27,-1.44c-0.102,-0.24 -0.257,-0.429 -0.464,-0.567c-0.207,-0.138 -0.475,-0.207 -0.805,-0.207c-0.33,0 -0.614,0.108 -0.851,0.324c-0.237,0.216 -0.4,0.477 -0.49,0.783c-0.09,0.306 -0.135,0.651 -0.135,1.035Z" style="fill:#afafaf;fill-rule:nonzero;"/><path d="M141.509,57.194l0,-0.729l0.324,-0.027c0.156,-0.012 0.234,-0.096 0.234,-0.252l0,-4.185l-0.513,-0.027l0,-0.765l1.62,0l2.547,4.131l0.018,0l0,-3.339l-0.594,-0.027l0,-0.765l2.196,0l0,0.729l-0.324,0.027c-0.144,0.012 -0.216,0.105 -0.216,0.279l0,4.95l-1.053,0l-2.601,-4.194l-0.018,0l0,3.402l0.585,0.027l0,0.765l-2.205,0Z" style="fill:#afafaf;fill-rule:nonzero;"/><path d="M150.698,56.186l0,-4.086l-0.702,0c-0.138,0 -0.207,0.093 -0.207,0.279l0,0.423l-0.918,-0.063l0,-1.53l4.707,0l0,1.53l-0.918,0.063l0,-0.423c0,-0.102 -0.015,-0.174 -0.045,-0.216c-0.03,-0.042 -0.102,-0.063 -0.216,-0.063l-0.612,0l0,4.302l0.711,0.027l0,0.765l-2.538,0l0,-0.729l0.477,-0.027c0.174,-0.018 0.261,-0.102 0.261,-0.252Z" style="fill:#afafaf;fill-rule:nonzero;"/><rect x="154.703" y="54.188" width="2.358" height="0.828" style="fill:#afafaf;fill-rule:nonzero;"/><path d="M163.082,57.194l-4.275,0l0,-0.729l0.297,-0.027c0.174,-0.018 0.261,-0.102 0.261,-0.252l0,-4.185l-0.513,-0.027l0,-0.765l4.122,0l0,1.494l-0.918,0.063l0,-0.36c0,-0.102 -0.015,-0.174 -0.045,-0.216c-0.03,-0.042 -0.102,-0.063 -0.216,-0.063l-1.332,0l0,1.539l2.079,0l0,0.918l-2.079,0l0,1.683l1.449,0c0.108,0 0.177,-0.022 0.207,-0.067c0.03,-0.045 0.045,-0.119 0.045,-0.221l0,-0.45l0.918,0.063l0,1.602Z" style="fill:#afafaf;fill-rule:nonzero;"/><path d="M164.9,57.194l0,-0.729l0.324,-0.027c0.156,-0.012 0.234,-0.096 0.234,-0.252l0,-4.185l-0.513,-0.027l0,-0.765l1.62,0l2.547,4.131l0.018,0l0,-3.339l-0.594,-0.027l0,-0.765l2.196,0l0,0.729l-0.324,0.027c-0.144,0.012 -0.216,0.105 -0.216,0.279l0,4.95l-1.053,0l-2.601,-4.194l-0.018,0l0,3.402l0.585,0.027l0,0.765l-2.205,0Z" style="fill:#afafaf;fill-rule:nonzero;"/><path d="M172.433,57.194l0,-0.729l0.297,-0.027c0.174,-0.018 0.261,-0.102 0.261,-0.252l0,-4.185l-0.513,-0.027l0,-0.765l2.466,0c0.882,0 1.57,0.234 2.065,0.702c0.495,0.468 0.743,1.161 0.743,2.079c0,0.57 -0.075,1.067 -0.225,1.49c-0.15,0.423 -0.354,0.754 -0.612,0.994c-0.516,0.48 -1.158,0.72 -1.926,0.72l-2.556,0Zm1.656,-5.112l0,4.248l0.918,0c0.516,0 0.918,-0.186 1.206,-0.558c0.288,-0.372 0.432,-0.912 0.432,-1.62c0,-1.38 -0.585,-2.07 -1.755,-2.07l-0.801,0Z" style="fill:#afafaf;fill-rule:nonzero;"/><path d="M186.833,57.194l-4.275,0l0,-0.729l0.297,-0.027c0.174,-0.018 0.261,-0.102 0.261,-0.252l0,-4.185l-0.513,-0.027l0,-0.765l4.122,0l0,1.494l-0.918,0.063l0,-0.36c0,-0.102 -0.015,-0.174 -0.045,-0.216c-0.03,-0.042 -0.102,-0.063 -0.216,-0.063l-1.332,0l0,1.539l2.079,0l0,0.918l-2.079,0l0,1.683l1.449,0c0.108,0 0.177,-0.022 0.207,-0.067c0.03,-0.045 0.045,-0.119 0.045,-0.221l0,-0.45l0.918,0.063l0,1.602Z" style="fill:#afafaf;fill-rule:nonzero;"/><path d="M188.651,57.194l0,-0.729l0.324,-0.027c0.156,-0.012 0.234,-0.096 0.234,-0.252l0,-4.185l-0.513,-0.027l0,-0.765l1.62,0l2.547,4.131l0.018,0l0,-3.339l-0.594,-0.027l0,-0.765l2.196,0l0,0.729l-0.324,0.027c-0.144,0.012 -0.216,0.105 -0.216,0.279l0,4.95l-1.053,0l-2.601,-4.194l-0.018,0l0,3.402l0.585,0.027l0,0.765l-2.205,0Z" style="fill:#afafaf;fill-rule:nonzero;"/><path d="M200.954,55.097l0,1.629c-0.558,0.384 -1.251,0.576 -2.079,0.576c-0.828,0 -1.475,-0.259 -1.94,-0.778c-0.465,-0.519 -0.697,-1.289 -0.697,-2.309c0,-0.45 0.058,-0.855 0.175,-1.215c0.117,-0.36 0.27,-0.657 0.459,-0.891c0.189,-0.234 0.41,-0.429 0.662,-0.585c0.48,-0.282 1.024,-0.423 1.633,-0.423c0.609,0 1.178,0.123 1.706,0.369l0,1.53l-0.918,0.063l0,-0.702c0,-0.09 -0.012,-0.156 -0.036,-0.198c-0.066,-0.114 -0.339,-0.171 -0.819,-0.171c-1.158,0 -1.737,0.717 -1.737,2.151c0,1.512 0.522,2.268 1.566,2.268c0.414,0 0.732,-0.072 0.954,-0.216l0,-1.341l-0.009,0l-0.693,-0.027l0,-0.765l2.241,0l0,0.72l-0.207,0.018c-0.096,0.012 -0.164,0.038 -0.203,0.077c-0.039,0.039 -0.058,0.112 -0.058,0.22Z" style="fill:#afafaf;fill-rule:nonzero;"/><path d="M203.663,56.141l0,-4.14l-0.513,-0.027l0,-0.765l2.178,0l0,0.729l-0.297,0.027c-0.174,0.018 -0.261,0.114 -0.261,0.288l0,4.149l0.513,0.027l0,0.765l-2.178,0l0,-0.729l0.297,-0.027c0.09,-0.012 0.156,-0.037 0.198,-0.076c0.042,-0.039 0.063,-0.113 0.063,-0.221Z" style="fill:#afafaf;fill-rule:nonzero;"/><path d="M207.038,57.194l0,-0.729l0.324,-0.027c0.156,-0.012 0.234,-0.096 0.234,-0.252l0,-4.185l-0.513,-0.027l0,-0.765l1.62,0l2.547,4.131l0.018,0l0,-3.339l-0.594,-0.027l0,-0.765l2.196,0l0,0.729l-0.324,0.027c-0.144,0.012 -0.216,0.105 -0.216,0.279l0,4.95l-1.053,0l-2.601,-4.194l-0.018,0l0,3.402l0.585,0.027l0,0.765l-2.205,0Z" style="fill:#afafaf;fill-rule:nonzero;"/><path d="M218.846,57.194l-4.275,0l0,-0.729l0.297,-0.027c0.174,-0.018 0.261,-0.102 0.261,-0.252l0,-4.185l-0.513,-0.027l0,-0.765l4.122,0l0,1.494l-0.918,0.063l0,-0.36c0,-0.102 -0.015,-0.174 -0.045,-0.216c-0.03,-0.042 -0.102,-0.063 -0.216,-0.063l-1.332,0l0,1.539l2.079,0l0,0.918l-2.079,0l0,1.683l1.449,0c0.108,0 0.177,-0.022 0.207,-0.067c0.03,-0.045 0.045,-0.119 0.045,-0.221l0,-0.45l0.918,0.063l0,1.602Z" style="fill:#afafaf;fill-rule:nonzero;"/><path d="M224.957,57.194l-4.275,0l0,-0.729l0.297,-0.027c0.174,-0.018 0.261,-0.102 0.261,-0.252l0,-4.185l-0.513,-0.027l0,-0.765l4.122,0l0,1.494l-0.918,0.063l0,-0.36c0,-0.102 -0.015,-0.174 -0.045,-0.216c-0.03,-0.042 -0.102,-0.063 -0.216,-0.063l-1.332,0l0,1.539l2.079,0l0,0.918l-2.079,0l0,1.683l1.449,0c0.108,0 0.177,-0.022 0.207,-0.067c0.03,-0.045 0.045,-0.119 0.045,-0.221l0,-0.45l0.918,0.063l0,1.602Z" style="fill:#afafaf;fill-rule:nonzero;"/><path d="M226.775,57.194l0,-0.729l0.297,-0.027c0.174,-0.018 0.261,-0.102 0.261,-0.252l0,-4.185l-0.513,-0.027l0,-0.765l2.457,0c0.696,0 1.23,0.129 1.602,0.387c0.372,0.258 0.558,0.681 0.558,1.269c0,0.408 -0.107,0.744 -0.32,1.008c-0.213,0.264 -0.466,0.456 -0.76,0.576c0.216,0.078 0.387,0.261 0.513,0.549l0.648,1.413l0.513,0.018l0,0.765l-2.223,0l0,-0.729l0.261,-0.027c0.138,-0.018 0.207,-0.072 0.207,-0.162c0,-0.036 -0.012,-0.078 -0.036,-0.126l-0.423,-0.9c-0.066,-0.15 -0.14,-0.256 -0.221,-0.319c-0.081,-0.063 -0.196,-0.095 -0.346,-0.095l-0.819,0l0,1.566l0.585,0.027l0,0.765l-2.241,0Zm1.656,-3.213l0.783,0c0.738,0 1.107,-0.33 1.107,-0.99c0,-0.378 -0.098,-0.624 -0.293,-0.738c-0.195,-0.114 -0.508,-0.171 -0.94,-0.171l-0.657,0l0,1.899Z" style="fill:#afafaf;fill-rule:nonzero;"/></g><defs><linearGradient id="_Linear1" x1="0" y1="0" x2="1" y2="0" gradientUnits="userSpaceOnUse" gradientTransform="matrix(39.1047,0,0,39.1047,34.611,27.4921)"><stop offset="0" style="stop-color:#3fffb1;stop-opacity:1"/><stop offset="0.12" style="stop-color:#3bf6b2;stop-opacity:1"/><stop offset="0.31" style="stop-color:#32dcb4;stop-opacity:1"/><stop offset="0.56" style="stop-color:#21b3b8;stop-opacity:1"/><stop offset="0.86" style="stop-color:#0b7abc;stop-opacity:1"/><stop offset="0.99" style="stop-color:#005cbf;stop-opacity:1"/><stop offset="1" style="stop-color:#005cbf;stop-opacity:1"/></linearGradient></defs></svg>