<?xml version="1.0" encoding="UTF-8" standalone="no"?>
<!DOCTYPE svg PUBLIC "-//W3C//DTD SVG 1.1//EN" "http://www.w3.org/Graphics/SVG/1.1/DTD/svg11.dtd">
<svg width="100%" height="100%" viewBox="0 0 507 97" version="1.1" xmlns="http://www.w3.org/2000/svg" xmlns:xlink="http://www.w3.org/1999/xlink" xml:space="preserve" style="fill-rule:evenodd;clip-rule:evenodd;stroke-linejoin:round;stroke-miterlimit:1.41421;">
    <g transform="matrix(1,0,0,1,-370.312,-198.962)">
        <g transform="matrix(1,0,0,1.56309,0,0)">
            <g transform="matrix(0.757821,0,0,0.484821,244.376,10.149)">
                <path d="M190.682,290.237L188.838,285.487L188.588,285.487C186.984,287.508 185.333,288.909 183.635,289.69C181.937,290.471 179.723,290.862 176.994,290.862C173.64,290.862 171,289.904 169.072,287.987C167.145,286.07 166.182,283.341 166.182,279.799C166.182,276.091 167.479,273.357 170.072,271.596C172.666,269.836 176.578,268.862 181.807,268.674L187.869,268.487L187.869,266.956C187.869,263.414 186.057,261.643 182.432,261.643C179.64,261.643 176.359,262.487 172.588,264.174L169.432,257.737C173.453,255.633 177.911,254.581 182.807,254.581C187.494,254.581 191.088,255.602 193.588,257.643C196.088,259.685 197.338,262.789 197.338,266.956L197.338,290.237L190.682,290.237ZM187.869,274.049L184.182,274.174C181.411,274.258 179.348,274.758 177.994,275.674C176.64,276.591 175.963,277.987 175.963,279.862C175.963,282.549 177.505,283.893 180.588,283.893C182.796,283.893 184.562,283.258 185.885,281.987C187.208,280.716 187.869,279.029 187.869,276.924L187.869,274.049Z" style="fill:none;"/>
                <path d="M235.155,290.862C231.051,290.862 227.832,289.372 225.499,286.393L224.999,286.393C225.332,289.31 225.499,290.997 225.499,291.456L225.499,305.612L215.968,305.612L215.968,255.299L223.718,255.299L225.061,259.831L225.499,259.831C227.728,256.372 231.03,254.643 235.405,254.643C239.53,254.643 242.759,256.237 245.093,259.424C247.426,262.612 248.593,267.039 248.593,272.706C248.593,276.435 248.046,279.674 246.952,282.424C245.858,285.174 244.301,287.268 242.28,288.706C240.259,290.143 237.884,290.862 235.155,290.862ZM232.343,262.268C229.988,262.268 228.27,262.992 227.186,264.44C226.103,265.888 225.54,268.279 225.499,271.612L225.499,272.643C225.499,276.393 226.056,279.081 227.171,280.706C228.285,282.331 230.051,283.143 232.468,283.143C236.738,283.143 238.874,279.622 238.874,272.581C238.874,269.143 238.348,266.565 237.296,264.846C236.244,263.128 234.593,262.268 232.343,262.268Z" style="fill:none;"/>
                <path d="M274.751,290.237L272.907,285.487L272.657,285.487C271.053,287.508 269.402,288.909 267.704,289.69C266.006,290.471 263.793,290.862 261.064,290.862C257.709,290.862 255.069,289.904 253.142,287.987C251.215,286.07 250.251,283.341 250.251,279.799C250.251,276.091 251.548,273.357 254.142,271.596C256.735,269.836 260.647,268.862 265.876,268.674L271.939,268.487L271.939,266.956C271.939,263.414 270.126,261.643 266.501,261.643C263.709,261.643 260.428,262.487 256.657,264.174L253.501,257.737C257.522,255.633 261.98,254.581 266.876,254.581C271.564,254.581 275.157,255.602 277.657,257.643C280.157,259.685 281.407,262.789 281.407,266.956L281.407,290.237L274.751,290.237ZM271.939,274.049L268.251,274.174C265.48,274.258 263.418,274.758 262.064,275.674C260.709,276.591 260.032,277.987 260.032,279.862C260.032,282.549 261.574,283.893 264.657,283.893C266.866,283.893 268.631,283.258 269.954,281.987C271.277,280.716 271.939,279.029 271.939,276.924L271.939,274.049Z" style="fill:none;"/>
                <path d="M311.691,279.862C311.691,283.445 310.446,286.174 307.956,288.049C305.467,289.924 301.743,290.862 296.785,290.862C294.243,290.862 292.076,290.69 290.285,290.346C288.493,290.003 286.816,289.497 285.253,288.831L285.253,280.956C287.024,281.789 289.019,282.487 291.238,283.049C293.456,283.612 295.41,283.893 297.097,283.893C300.555,283.893 302.285,282.893 302.285,280.893C302.285,280.143 302.055,279.534 301.597,279.065C301.139,278.596 300.347,278.065 299.222,277.471C298.097,276.878 296.597,276.185 294.722,275.393C292.035,274.268 290.061,273.227 288.8,272.268C287.54,271.31 286.623,270.211 286.05,268.971C285.477,267.732 285.191,266.206 285.191,264.393C285.191,261.289 286.394,258.888 288.8,257.19C291.206,255.492 294.618,254.643 299.035,254.643C303.243,254.643 307.337,255.56 311.316,257.393L308.441,264.268C306.691,263.518 305.055,262.904 303.535,262.424C302.014,261.945 300.462,261.706 298.878,261.706C296.066,261.706 294.66,262.466 294.66,263.987C294.66,264.841 295.113,265.581 296.019,266.206C296.925,266.831 298.91,267.758 301.972,268.987C304.701,270.091 306.701,271.122 307.972,272.081C309.243,273.039 310.18,274.143 310.785,275.393C311.389,276.643 311.691,278.133 311.691,279.862Z" style="fill:none;"/>
                <path d="M339.599,279.862C339.599,283.445 338.355,286.174 335.865,288.049C333.375,289.924 329.651,290.862 324.693,290.862C322.151,290.862 319.985,290.69 318.193,290.346C316.401,290.003 314.724,289.497 313.162,288.831L313.162,280.956C314.933,281.789 316.927,282.487 319.146,283.049C321.365,283.612 323.318,283.893 325.006,283.893C328.464,283.893 330.193,282.893 330.193,280.893C330.193,280.143 329.964,279.534 329.506,279.065C329.047,278.596 328.256,278.065 327.131,277.471C326.006,276.878 324.506,276.185 322.631,275.393C319.943,274.268 317.969,273.227 316.709,272.268C315.448,271.31 314.532,270.211 313.959,268.971C313.386,267.732 313.099,266.206 313.099,264.393C313.099,261.289 314.302,258.888 316.709,257.19C319.115,255.492 322.526,254.643 326.943,254.643C331.151,254.643 335.245,255.56 339.224,257.393L336.349,264.268C334.599,263.518 332.964,262.904 331.443,262.424C329.922,261.945 328.37,261.706 326.787,261.706C323.974,261.706 322.568,262.466 322.568,263.987C322.568,264.841 323.021,265.581 323.927,266.206C324.834,266.831 326.818,267.758 329.881,268.987C332.61,270.091 334.61,271.122 335.881,272.081C337.151,273.039 338.089,274.143 338.693,275.393C339.297,276.643 339.599,278.133 339.599,279.862Z" style="fill:none;"/>
                <path d="M342.727,246.268C342.727,243.164 344.456,241.612 347.914,241.612C351.372,241.612 353.102,243.164 353.102,246.268C353.102,247.747 352.669,248.898 351.805,249.721C350.94,250.544 349.643,250.956 347.914,250.956C344.456,250.956 342.727,249.393 342.727,246.268ZM352.664,290.237L343.133,290.237L343.133,255.299L352.664,255.299L352.664,290.237Z" style="fill:none;"/>
                <path d="M366.354,272.706C366.354,276.164 366.922,278.779 368.057,280.549C369.192,282.32 371.041,283.206 373.604,283.206C376.145,283.206 377.974,282.326 379.088,280.565C380.203,278.805 380.76,276.185 380.76,272.706C380.76,269.247 380.198,266.654 379.073,264.924C377.948,263.195 376.104,262.331 373.541,262.331C371,262.331 369.166,263.19 368.041,264.909C366.916,266.628 366.354,269.227 366.354,272.706ZM390.51,272.706C390.51,278.393 389.01,282.841 386.01,286.049C383.01,289.258 378.833,290.862 373.479,290.862C370.125,290.862 367.166,290.128 364.604,288.659C362.041,287.19 360.073,285.081 358.698,282.331C357.323,279.581 356.635,276.372 356.635,272.706C356.635,266.997 358.125,262.56 361.104,259.393C364.083,256.227 368.27,254.643 373.666,254.643C377.02,254.643 379.979,255.372 382.541,256.831C385.104,258.289 387.073,260.383 388.448,263.112C389.823,265.841 390.51,269.039 390.51,272.706Z" style="fill:none;"/>
                <path d="M426.731,290.237L417.2,290.237L417.2,269.831C417.2,267.31 416.752,265.419 415.856,264.159C414.96,262.898 413.533,262.268 411.575,262.268C408.908,262.268 406.981,263.159 405.794,264.94C404.606,266.721 404.012,269.674 404.012,273.799L404.012,290.237L394.481,290.237L394.481,255.299L401.762,255.299L403.044,259.768L403.575,259.768C404.637,258.081 406.101,256.805 407.965,255.94C409.83,255.076 411.95,254.643 414.325,254.643C418.387,254.643 421.471,255.742 423.575,257.94C425.679,260.138 426.731,263.31 426.731,267.456L426.731,290.237Z" style="fill:none;"/>
                <path d="M431.296,285.768C431.296,284.018 431.765,282.695 432.702,281.799C433.64,280.904 435.004,280.456 436.796,280.456C438.525,280.456 439.864,280.914 440.811,281.831C441.759,282.747 442.233,284.06 442.233,285.768C442.233,287.414 441.754,288.711 440.796,289.659C439.837,290.607 438.504,291.081 436.796,291.081C435.046,291.081 433.692,290.617 432.733,289.69C431.775,288.763 431.296,287.456 431.296,285.768ZM431.296,259.956C431.296,258.206 431.765,256.883 432.702,255.987C433.64,255.091 435.004,254.643 436.796,254.643C438.525,254.643 439.864,255.102 440.811,256.018C441.759,256.935 442.233,258.247 442.233,259.956C442.233,261.643 441.749,262.951 440.78,263.878C439.811,264.805 438.483,265.268 436.796,265.268C435.046,265.268 433.692,264.81 432.733,263.893C431.775,262.977 431.296,261.664 431.296,259.956Z" style="fill:none;"/>
                <path d="M182.682,354.201C171.807,354.201 166.369,348.233 166.369,336.295C166.369,330.358 167.848,325.821 170.807,322.686C173.765,319.55 178.005,317.983 183.526,317.983C187.567,317.983 191.192,318.774 194.401,320.358L191.588,327.733C190.088,327.129 188.692,326.634 187.401,326.248C186.109,325.863 184.817,325.67 183.526,325.67C178.567,325.67 176.088,329.191 176.088,336.233C176.088,343.066 178.567,346.483 183.526,346.483C185.359,346.483 187.057,346.238 188.619,345.748C190.182,345.259 191.744,344.493 193.307,343.451L193.307,351.608C191.765,352.587 190.208,353.264 188.635,353.639C187.062,354.014 185.078,354.201 182.682,354.201Z" style="fill:none;"/>
                <path d="M216.997,317.983C218.288,317.983 219.361,318.076 220.215,318.264L219.497,327.201C218.726,326.993 217.788,326.889 216.684,326.889C213.642,326.889 211.273,327.67 209.575,329.233C207.877,330.795 207.028,332.983 207.028,335.795L207.028,353.576L197.497,353.576L197.497,318.639L204.715,318.639L206.122,324.514L206.59,324.514C207.674,322.556 209.137,320.978 210.981,319.78C212.825,318.582 214.83,317.983 216.997,317.983Z" style="fill:none;"/>
                <path d="M243.561,353.576L241.718,348.826L241.468,348.826C239.863,350.847 238.212,352.248 236.514,353.03C234.817,353.811 232.603,354.201 229.874,354.201C226.52,354.201 223.879,353.243 221.952,351.326C220.025,349.41 219.061,346.681 219.061,343.139C219.061,339.431 220.358,336.696 222.952,334.936C225.546,333.175 229.457,332.201 234.686,332.014L240.749,331.826L240.749,330.295C240.749,326.754 238.936,324.983 235.311,324.983C232.52,324.983 229.238,325.826 225.468,327.514L222.311,321.076C226.332,318.972 230.79,317.92 235.686,317.92C240.374,317.92 243.968,318.941 246.468,320.983C248.968,323.024 250.218,326.129 250.218,330.295L250.218,353.576L243.561,353.576ZM240.749,337.389L237.061,337.514C234.29,337.597 232.228,338.097 230.874,339.014C229.52,339.931 228.843,341.326 228.843,343.201C228.843,345.889 230.384,347.233 233.468,347.233C235.676,347.233 237.442,346.597 238.764,345.326C240.087,344.056 240.749,342.368 240.749,340.264L240.749,337.389Z" style="fill:none;"/>
                <path d="M275.439,325.795L267.189,325.795L267.189,353.576L257.657,353.576L257.657,325.795L252.407,325.795L252.407,321.201L257.657,318.639L257.657,316.076C257.657,312.097 258.636,309.191 260.595,307.358C262.553,305.524 265.689,304.608 270.001,304.608C273.293,304.608 276.22,305.097 278.782,306.076L276.345,313.076C274.428,312.472 272.657,312.17 271.032,312.17C269.678,312.17 268.699,312.571 268.095,313.373C267.491,314.175 267.189,315.201 267.189,316.451L267.189,318.639L275.439,318.639L275.439,325.795Z" style="fill:none;"/>
                <path d="M291.722,346.608C293.389,346.608 295.389,346.243 297.722,345.514L297.722,352.608C295.347,353.67 292.43,354.201 288.972,354.201C285.16,354.201 282.384,353.238 280.644,351.311C278.904,349.384 278.035,346.493 278.035,342.639L278.035,325.795L273.472,325.795L273.472,321.764L278.722,318.576L281.472,311.201L287.566,311.201L287.566,318.639L297.347,318.639L297.347,325.795L287.566,325.795L287.566,342.639C287.566,343.993 287.946,344.993 288.706,345.639C289.467,346.285 290.472,346.608 291.722,346.608Z" style="fill:none;"/>
                <path d="M328.07,324.764C326.049,324.764 324.466,325.405 323.32,326.686C322.174,327.967 321.518,329.785 321.352,332.139L334.727,332.139C334.685,329.785 334.07,327.967 332.883,326.686C331.695,325.405 330.091,324.764 328.07,324.764ZM329.414,354.201C323.789,354.201 319.393,352.649 316.227,349.545C313.06,346.441 311.477,342.045 311.477,336.358C311.477,330.504 312.94,325.978 315.867,322.78C318.794,319.582 322.841,317.983 328.008,317.983C332.945,317.983 336.789,319.389 339.539,322.201C342.289,325.014 343.664,328.899 343.664,333.858L343.664,338.483L321.133,338.483C321.237,341.191 322.039,343.306 323.539,344.826C325.039,346.347 327.143,347.108 329.852,347.108C331.956,347.108 333.945,346.889 335.82,346.451C337.695,346.014 339.654,345.316 341.695,344.358L341.695,351.733C340.029,352.566 338.247,353.186 336.352,353.592C334.456,353.998 332.143,354.201 329.414,354.201Z" style="fill:none;"/>
                <path d="M369.698,353.576L367.854,348.826L367.604,348.826C366,350.847 364.349,352.248 362.651,353.03C360.953,353.811 358.739,354.201 356.01,354.201C352.656,354.201 350.015,353.243 348.088,351.326C346.161,349.41 345.198,346.681 345.198,343.139C345.198,339.431 346.494,336.696 349.088,334.936C351.682,333.175 355.593,332.201 360.823,332.014L366.885,331.826L366.885,330.295C366.885,326.754 365.073,324.983 361.448,324.983C358.656,324.983 355.375,325.826 351.604,327.514L348.448,321.076C352.468,318.972 356.927,317.92 361.823,317.92C366.51,317.92 370.104,318.941 372.604,320.983C375.104,323.024 376.354,326.129 376.354,330.295L376.354,353.576L369.698,353.576ZM366.885,337.389L363.198,337.514C360.427,337.597 358.364,338.097 357.01,339.014C355.656,339.931 354.979,341.326 354.979,343.201C354.979,345.889 356.52,347.233 359.604,347.233C361.812,347.233 363.578,346.597 364.901,345.326C366.224,344.056 366.885,342.368 366.885,340.264L366.885,337.389Z" style="fill:none;"/>
                <path d="M406.637,343.201C406.637,346.785 405.393,349.514 402.903,351.389C400.413,353.264 396.689,354.201 391.731,354.201C389.189,354.201 387.023,354.03 385.231,353.686C383.439,353.342 381.762,352.837 380.2,352.17L380.2,344.295C381.971,345.129 383.965,345.826 386.184,346.389C388.403,346.951 390.356,347.233 392.044,347.233C395.502,347.233 397.231,346.233 397.231,344.233C397.231,343.483 397.002,342.873 396.544,342.405C396.085,341.936 395.294,341.405 394.169,340.811C393.044,340.217 391.544,339.524 389.669,338.733C386.981,337.608 385.007,336.566 383.747,335.608C382.486,334.649 381.57,333.55 380.997,332.311C380.424,331.071 380.137,329.545 380.137,327.733C380.137,324.629 381.34,322.228 383.747,320.53C386.153,318.832 389.564,317.983 393.981,317.983C398.189,317.983 402.283,318.899 406.262,320.733L403.387,327.608C401.637,326.858 400.002,326.243 398.481,325.764C396.96,325.285 395.408,325.045 393.825,325.045C391.012,325.045 389.606,325.806 389.606,327.326C389.606,328.181 390.059,328.92 390.965,329.545C391.872,330.17 393.856,331.097 396.919,332.326C399.648,333.431 401.648,334.462 402.919,335.42C404.189,336.379 405.127,337.483 405.731,338.733C406.335,339.983 406.637,341.472 406.637,343.201Z" style="fill:none;"/>
                <path d="M405.171,318.639L415.608,318.639L422.202,338.295C422.765,340.004 423.15,342.024 423.358,344.358L423.546,344.358C423.775,342.212 424.223,340.191 424.89,338.295L431.358,318.639L441.577,318.639L426.796,358.045C425.442,361.691 423.509,364.42 420.999,366.233C418.489,368.045 415.556,368.951 412.202,368.951C410.556,368.951 408.942,368.774 407.358,368.42L407.358,360.858C408.504,361.129 409.754,361.264 411.108,361.264C412.796,361.264 414.27,360.748 415.53,359.717C416.791,358.686 417.775,357.129 418.483,355.045L419.046,353.326L405.171,318.639Z" style="fill:none;"/>
                <rect x="439.579" y="332.514" width="16.781" height="7.813" style="fill:none;"/>
                <path d="M474.082,346.608C475.748,346.608 477.748,346.243 480.082,345.514L480.082,352.608C477.707,353.67 474.79,354.201 471.332,354.201C467.519,354.201 464.743,353.238 463.003,351.311C461.264,349.384 460.394,346.493 460.394,342.639L460.394,325.795L455.832,325.795L455.832,321.764L461.082,318.576L463.832,311.201L469.925,311.201L469.925,318.639L479.707,318.639L479.707,325.795L469.925,325.795L469.925,342.639C469.925,343.993 470.306,344.993 471.066,345.639C471.826,346.285 472.832,346.608 474.082,346.608Z" style="fill:none;"/>
                <path d="M490.834,336.045C490.834,339.504 491.402,342.118 492.537,343.889C493.672,345.66 495.521,346.545 498.084,346.545C500.625,346.545 502.454,345.665 503.568,343.905C504.683,342.144 505.24,339.524 505.24,336.045C505.24,332.587 504.678,329.993 503.553,328.264C502.428,326.535 500.584,325.67 498.021,325.67C495.48,325.67 493.646,326.53 492.521,328.248C491.396,329.967 490.834,332.566 490.834,336.045ZM514.99,336.045C514.99,341.733 513.49,346.181 510.49,349.389C507.49,352.597 503.313,354.201 497.959,354.201C494.605,354.201 491.646,353.467 489.084,351.998C486.521,350.53 484.553,348.42 483.178,345.67C481.803,342.92 481.115,339.712 481.115,336.045C481.115,330.337 482.605,325.899 485.584,322.733C488.563,319.566 492.75,317.983 498.146,317.983C501.5,317.983 504.459,318.712 507.021,320.17C509.584,321.629 511.553,323.722 512.928,326.451C514.303,329.181 514.99,332.379 514.99,336.045Z" style="fill:none;"/>
                <rect x="515.867" y="332.514" width="16.781" height="7.813" style="fill:none;"/>
                <path d="M560.401,353.576L559.12,349.108L558.62,349.108C557.599,350.733 556.151,351.988 554.276,352.873C552.401,353.759 550.265,354.201 547.87,354.201C543.765,354.201 540.672,353.103 538.588,350.905C536.505,348.707 535.463,345.545 535.463,341.42L535.463,318.639L544.995,318.639L544.995,339.045C544.995,341.566 545.442,343.457 546.338,344.717C547.234,345.978 548.661,346.608 550.62,346.608C553.286,346.608 555.213,345.717 556.401,343.936C557.588,342.155 558.182,339.201 558.182,335.076L558.182,318.639L567.713,318.639L567.713,353.576L560.401,353.576Z" style="fill:none;"/>
                <path d="M598.184,343.201C598.184,346.785 596.94,349.514 594.45,351.389C591.96,353.264 588.236,354.201 583.278,354.201C580.736,354.201 578.57,354.03 576.778,353.686C574.986,353.342 573.309,352.837 571.747,352.17L571.747,344.295C573.518,345.129 575.512,345.826 577.731,346.389C579.95,346.951 581.903,347.233 583.591,347.233C587.049,347.233 588.778,346.233 588.778,344.233C588.778,343.483 588.549,342.873 588.091,342.405C587.632,341.936 586.841,341.405 585.716,340.811C584.591,340.217 583.091,339.524 581.216,338.733C578.528,337.608 576.554,336.566 575.294,335.608C574.033,334.649 573.117,333.55 572.544,332.311C571.971,331.071 571.684,329.545 571.684,327.733C571.684,324.629 572.887,322.228 575.294,320.53C577.7,318.832 581.111,317.983 585.528,317.983C589.736,317.983 593.83,318.899 597.809,320.733L594.934,327.608C593.184,326.858 591.549,326.243 590.028,325.764C588.507,325.285 586.955,325.045 585.372,325.045C582.559,325.045 581.153,325.806 581.153,327.326C581.153,328.181 581.606,328.92 582.512,329.545C583.419,330.17 585.403,331.097 588.466,332.326C591.195,333.431 593.195,334.462 594.466,335.42C595.736,336.379 596.674,337.483 597.278,338.733C597.882,339.983 598.184,341.472 598.184,343.201Z" style="fill:none;"/>
                <path d="M616.187,324.764C614.166,324.764 612.582,325.405 611.437,326.686C610.291,327.967 609.634,329.785 609.468,332.139L622.843,332.139C622.801,329.785 622.187,327.967 620.999,326.686C619.812,325.405 618.207,324.764 616.187,324.764ZM617.53,354.201C611.905,354.201 607.509,352.649 604.343,349.545C601.176,346.441 599.593,342.045 599.593,336.358C599.593,330.504 601.056,325.978 603.983,322.78C606.911,319.582 610.957,317.983 616.124,317.983C621.062,317.983 624.905,319.389 627.655,322.201C630.405,325.014 631.78,328.899 631.78,333.858L631.78,338.483L609.249,338.483C609.353,341.191 610.155,343.306 611.655,344.826C613.155,346.347 615.259,347.108 617.968,347.108C620.072,347.108 622.062,346.889 623.937,346.451C625.812,346.014 627.77,345.316 629.812,344.358L629.812,351.733C628.145,352.566 626.364,353.186 624.468,353.592C622.572,353.998 620.259,354.201 617.53,354.201Z" style="fill:none;"/>
                <path d="M663.066,346.608C664.733,346.608 666.733,346.243 669.066,345.514L669.066,352.608C666.691,353.67 663.774,354.201 660.316,354.201C656.504,354.201 653.728,353.238 651.988,351.311C650.248,349.384 649.379,346.493 649.379,342.639L649.379,325.795L644.816,325.795L644.816,321.764L650.066,318.576L652.816,311.201L658.91,311.201L658.91,318.639L668.691,318.639L668.691,325.795L658.91,325.795L658.91,342.639C658.91,343.993 659.29,344.993 660.05,345.639C660.811,346.285 661.816,346.608 663.066,346.608Z" style="fill:none;"/>
                <path d="M704.475,353.576L694.943,353.576L694.943,333.17C694.943,328.129 693.068,325.608 689.318,325.608C686.652,325.608 684.725,326.514 683.537,328.326C682.35,330.139 681.756,333.076 681.756,337.139L681.756,353.576L672.225,353.576L672.225,304.951L681.756,304.951L681.756,314.858C681.756,315.629 681.683,317.441 681.537,320.295L681.318,323.108L681.818,323.108C683.943,319.691 687.318,317.983 691.943,317.983C696.047,317.983 699.162,319.087 701.287,321.295C703.412,323.504 704.475,326.67 704.475,330.795L704.475,353.576Z" style="fill:none;"/>
                <path d="M709.977,309.608C709.977,306.504 711.706,304.951 715.164,304.951C718.623,304.951 720.352,306.504 720.352,309.608C720.352,311.087 719.92,312.238 719.055,313.061C718.19,313.884 716.893,314.295 715.164,314.295C711.706,314.295 709.977,312.733 709.977,309.608ZM719.914,353.576L710.383,353.576L710.383,318.639L719.914,318.639L719.914,353.576Z" style="fill:none;"/>
                <path d="M758.26,353.576L748.729,353.576L748.729,333.17C748.729,330.649 748.281,328.759 747.385,327.498C746.489,326.238 745.062,325.608 743.104,325.608C740.437,325.608 738.51,326.498 737.323,328.28C736.135,330.061 735.542,333.014 735.542,337.139L735.542,353.576L726.01,353.576L726.01,318.639L733.292,318.639L734.573,323.108L735.104,323.108C736.167,321.42 737.63,320.144 739.495,319.28C741.359,318.415 743.479,317.983 745.854,317.983C749.917,317.983 753,319.082 755.104,321.28C757.208,323.478 758.26,326.649 758.26,330.795L758.26,353.576Z" style="fill:none;"/>
                <path d="M794.575,318.639L794.575,323.483L789.106,324.889C790.106,326.451 790.606,328.201 790.606,330.139C790.606,333.889 789.299,336.811 786.684,338.905C784.07,340.998 780.44,342.045 775.794,342.045L774.075,341.951L772.669,341.795C771.69,342.545 771.2,343.379 771.2,344.295C771.2,345.67 772.95,346.358 776.45,346.358L782.388,346.358C786.221,346.358 789.143,347.181 791.153,348.826C793.164,350.472 794.169,352.889 794.169,356.076C794.169,360.16 792.466,363.326 789.059,365.576C785.653,367.826 780.763,368.951 774.388,368.951C769.513,368.951 765.789,368.103 763.216,366.405C760.643,364.707 759.356,362.326 759.356,359.264C759.356,357.16 760.013,355.399 761.325,353.983C762.638,352.566 764.565,351.556 767.106,350.951C766.127,350.535 765.273,349.853 764.544,348.905C763.815,347.957 763.45,346.951 763.45,345.889C763.45,344.556 763.835,343.446 764.606,342.561C765.377,341.675 766.492,340.806 767.95,339.951C766.117,339.16 764.664,337.889 763.591,336.139C762.518,334.389 761.981,332.326 761.981,329.951C761.981,326.139 763.221,323.191 765.7,321.108C768.179,319.024 771.721,317.983 776.325,317.983C777.304,317.983 778.466,318.071 779.809,318.248C781.153,318.425 782.013,318.556 782.388,318.639L794.575,318.639ZM767.606,358.514C767.606,359.826 768.237,360.858 769.497,361.608C770.757,362.358 772.523,362.733 774.794,362.733C778.21,362.733 780.888,362.264 782.825,361.326C784.763,360.389 785.731,359.108 785.731,357.483C785.731,356.17 785.158,355.264 784.013,354.764C782.867,354.264 781.096,354.014 778.7,354.014L773.763,354.014C772.013,354.014 770.549,354.425 769.372,355.248C768.195,356.071 767.606,357.16 767.606,358.514ZM771.075,330.076C771.075,331.972 771.507,333.472 772.372,334.576C773.237,335.681 774.554,336.233 776.325,336.233C778.117,336.233 779.429,335.681 780.263,334.576C781.096,333.472 781.513,331.972 781.513,330.076C781.513,325.868 779.783,323.764 776.325,323.764C772.825,323.764 771.075,325.868 771.075,330.076Z" style="fill:none;"/>
                <path d="M820.796,343.201C820.796,346.785 819.551,349.514 817.062,351.389C814.572,353.264 810.848,354.201 805.89,354.201C803.348,354.201 801.181,354.03 799.39,353.686C797.598,353.342 795.921,352.837 794.359,352.17L794.359,344.295C796.129,345.129 798.124,345.826 800.343,346.389C802.562,346.951 804.515,347.233 806.202,347.233C809.661,347.233 811.39,346.233 811.39,344.233C811.39,343.483 811.161,342.873 810.702,342.405C810.244,341.936 809.452,341.405 808.327,340.811C807.202,340.217 805.702,339.524 803.827,338.733C801.14,337.608 799.166,336.566 797.905,335.608C796.645,334.649 795.728,333.55 795.155,332.311C794.583,331.071 794.296,329.545 794.296,327.733C794.296,324.629 795.499,322.228 797.905,320.53C800.312,318.832 803.723,317.983 808.14,317.983C812.348,317.983 816.442,318.899 820.421,320.733L817.546,327.608C815.796,326.858 814.161,326.243 812.64,325.764C811.119,325.285 809.567,325.045 807.984,325.045C805.171,325.045 803.765,325.806 803.765,327.326C803.765,328.181 804.218,328.92 805.124,329.545C806.03,330.17 808.015,331.097 811.077,332.326C813.806,333.431 815.806,334.462 817.077,335.42C818.348,336.379 819.286,337.483 819.89,338.733C820.494,339.983 820.796,341.472 820.796,343.201Z" style="fill:none;"/>
                <path d="M822.986,349.108C822.986,347.358 823.455,346.035 824.392,345.139C825.33,344.243 826.694,343.795 828.486,343.795C830.215,343.795 831.554,344.254 832.501,345.17C833.449,346.087 833.923,347.399 833.923,349.108C833.923,350.754 833.444,352.05 832.486,352.998C831.527,353.946 830.194,354.42 828.486,354.42C826.736,354.42 825.382,353.957 824.423,353.03C823.465,352.103 822.986,350.795 822.986,349.108Z" style="fill:none;"/>
                <path d="M190.682,290.237L188.838,285.487L188.588,285.487C186.984,287.508 185.333,288.909 183.635,289.69C181.937,290.471 179.723,290.862 176.994,290.862C173.64,290.862 171,289.904 169.072,287.987C167.145,286.07 166.182,283.341 166.182,279.799C166.182,276.091 167.479,273.357 170.072,271.596C172.666,269.836 176.578,268.862 181.807,268.674L187.869,268.487L187.869,266.956C187.869,263.414 186.057,261.643 182.432,261.643C179.64,261.643 176.359,262.487 172.588,264.174L169.432,257.737C173.453,255.633 177.911,254.581 182.807,254.581C187.494,254.581 191.088,255.602 193.588,257.643C196.088,259.685 197.338,262.789 197.338,266.956L197.338,290.237L190.682,290.237ZM187.869,274.049L184.182,274.174C181.411,274.258 179.348,274.758 177.994,275.674C176.64,276.591 175.963,277.987 175.963,279.862C175.963,282.549 177.505,283.893 180.588,283.893C182.796,283.893 184.562,283.258 185.885,281.987C187.208,280.716 187.869,279.029 187.869,276.924L187.869,274.049Z" style="fill:url(#_Linear1);fill-rule:nonzero;"/>
                <path d="M235.155,290.862C231.051,290.862 227.832,289.372 225.499,286.393L224.999,286.393C225.332,289.31 225.499,290.997 225.499,291.456L225.499,305.612L215.968,305.612L215.968,255.299L223.718,255.299L225.061,259.831L225.499,259.831C227.728,256.372 231.03,254.643 235.405,254.643C239.53,254.643 242.759,256.237 245.093,259.424C247.426,262.612 248.593,267.039 248.593,272.706C248.593,276.435 248.046,279.674 246.952,282.424C245.858,285.174 244.301,287.268 242.28,288.706C240.259,290.143 237.884,290.862 235.155,290.862ZM232.343,262.268C229.988,262.268 228.27,262.992 227.186,264.44C226.103,265.888 225.54,268.279 225.499,271.612L225.499,272.643C225.499,276.393 226.056,279.081 227.171,280.706C228.285,282.331 230.051,283.143 232.468,283.143C236.738,283.143 238.874,279.622 238.874,272.581C238.874,269.143 238.348,266.565 237.296,264.846C236.244,263.128 234.593,262.268 232.343,262.268Z" style="fill:url(#_Linear2);fill-rule:nonzero;"/>
                <path d="M274.751,290.237L272.907,285.487L272.657,285.487C271.053,287.508 269.402,288.909 267.704,289.69C266.006,290.471 263.793,290.862 261.064,290.862C257.709,290.862 255.069,289.904 253.142,287.987C251.215,286.07 250.251,283.341 250.251,279.799C250.251,276.091 251.548,273.357 254.142,271.596C256.735,269.836 260.647,268.862 265.876,268.674L271.939,268.487L271.939,266.956C271.939,263.414 270.126,261.643 266.501,261.643C263.709,261.643 260.428,262.487 256.657,264.174L253.501,257.737C257.522,255.633 261.98,254.581 266.876,254.581C271.564,254.581 275.157,255.602 277.657,257.643C280.157,259.685 281.407,262.789 281.407,266.956L281.407,290.237L274.751,290.237ZM271.939,274.049L268.251,274.174C265.48,274.258 263.418,274.758 262.064,275.674C260.709,276.591 260.032,277.987 260.032,279.862C260.032,282.549 261.574,283.893 264.657,283.893C266.866,283.893 268.631,283.258 269.954,281.987C271.277,280.716 271.939,279.029 271.939,276.924L271.939,274.049Z" style="fill:url(#_Linear3);fill-rule:nonzero;"/>
                <path d="M311.691,279.862C311.691,283.445 310.446,286.174 307.956,288.049C305.467,289.924 301.743,290.862 296.785,290.862C294.243,290.862 292.076,290.69 290.285,290.346C288.493,290.003 286.816,289.497 285.253,288.831L285.253,280.956C287.024,281.789 289.019,282.487 291.238,283.049C293.456,283.612 295.41,283.893 297.097,283.893C300.555,283.893 302.285,282.893 302.285,280.893C302.285,280.143 302.055,279.534 301.597,279.065C301.139,278.596 300.347,278.065 299.222,277.471C298.097,276.878 296.597,276.185 294.722,275.393C292.035,274.268 290.061,273.227 288.8,272.268C287.54,271.31 286.623,270.211 286.05,268.971C285.477,267.732 285.191,266.206 285.191,264.393C285.191,261.289 286.394,258.888 288.8,257.19C291.206,255.492 294.618,254.643 299.035,254.643C303.243,254.643 307.337,255.56 311.316,257.393L308.441,264.268C306.691,263.518 305.055,262.904 303.535,262.424C302.014,261.945 300.462,261.706 298.878,261.706C296.066,261.706 294.66,262.466 294.66,263.987C294.66,264.841 295.113,265.581 296.019,266.206C296.925,266.831 298.91,267.758 301.972,268.987C304.701,270.091 306.701,271.122 307.972,272.081C309.243,273.039 310.18,274.143 310.785,275.393C311.389,276.643 311.691,278.133 311.691,279.862Z" style="fill:url(#_Linear4);fill-rule:nonzero;"/>
                <path d="M339.599,279.862C339.599,283.445 338.355,286.174 335.865,288.049C333.375,289.924 329.651,290.862 324.693,290.862C322.151,290.862 319.985,290.69 318.193,290.346C316.401,290.003 314.724,289.497 313.162,288.831L313.162,280.956C314.933,281.789 316.927,282.487 319.146,283.049C321.365,283.612 323.318,283.893 325.006,283.893C328.464,283.893 330.193,282.893 330.193,280.893C330.193,280.143 329.964,279.534 329.506,279.065C329.047,278.596 328.256,278.065 327.131,277.471C326.006,276.878 324.506,276.185 322.631,275.393C319.943,274.268 317.969,273.227 316.709,272.268C315.448,271.31 314.532,270.211 313.959,268.971C313.386,267.732 313.099,266.206 313.099,264.393C313.099,261.289 314.302,258.888 316.709,257.19C319.115,255.492 322.526,254.643 326.943,254.643C331.151,254.643 335.245,255.56 339.224,257.393L336.349,264.268C334.599,263.518 332.964,262.904 331.443,262.424C329.922,261.945 328.37,261.706 326.787,261.706C323.974,261.706 322.568,262.466 322.568,263.987C322.568,264.841 323.021,265.581 323.927,266.206C324.834,266.831 326.818,267.758 329.881,268.987C332.61,270.091 334.61,271.122 335.881,272.081C337.151,273.039 338.089,274.143 338.693,275.393C339.297,276.643 339.599,278.133 339.599,279.862Z" style="fill:url(#_Linear5);fill-rule:nonzero;"/>
                <path d="M342.727,246.268C342.727,243.164 344.456,241.612 347.914,241.612C351.372,241.612 353.102,243.164 353.102,246.268C353.102,247.747 352.669,248.898 351.805,249.721C350.94,250.544 349.643,250.956 347.914,250.956C344.456,250.956 342.727,249.393 342.727,246.268ZM352.664,290.237L343.133,290.237L343.133,255.299L352.664,255.299L352.664,290.237Z" style="fill:url(#_Linear6);fill-rule:nonzero;"/>
                <path d="M366.354,272.706C366.354,276.164 366.922,278.779 368.057,280.549C369.192,282.32 371.041,283.206 373.604,283.206C376.145,283.206 377.974,282.326 379.088,280.565C380.203,278.805 380.76,276.185 380.76,272.706C380.76,269.247 380.198,266.654 379.073,264.924C377.948,263.195 376.104,262.331 373.541,262.331C371,262.331 369.166,263.19 368.041,264.909C366.916,266.628 366.354,269.227 366.354,272.706ZM390.51,272.706C390.51,278.393 389.01,282.841 386.01,286.049C383.01,289.258 378.833,290.862 373.479,290.862C370.125,290.862 367.166,290.128 364.604,288.659C362.041,287.19 360.073,285.081 358.698,282.331C357.323,279.581 356.635,276.372 356.635,272.706C356.635,266.997 358.125,262.56 361.104,259.393C364.083,256.227 368.27,254.643 373.666,254.643C377.02,254.643 379.979,255.372 382.541,256.831C385.104,258.289 387.073,260.383 388.448,263.112C389.823,265.841 390.51,269.039 390.51,272.706Z" style="fill:url(#_Linear7);fill-rule:nonzero;"/>
                <path d="M426.731,290.237L417.2,290.237L417.2,269.831C417.2,267.31 416.752,265.419 415.856,264.159C414.96,262.898 413.533,262.268 411.575,262.268C408.908,262.268 406.981,263.159 405.794,264.94C404.606,266.721 404.012,269.674 404.012,273.799L404.012,290.237L394.481,290.237L394.481,255.299L401.762,255.299L403.044,259.768L403.575,259.768C404.637,258.081 406.101,256.805 407.965,255.94C409.83,255.076 411.95,254.643 414.325,254.643C418.387,254.643 421.471,255.742 423.575,257.94C425.679,260.138 426.731,263.31 426.731,267.456L426.731,290.237Z" style="fill:url(#_Linear8);fill-rule:nonzero;"/>
                <path d="M431.296,285.768C431.296,284.018 431.765,282.695 432.702,281.799C433.64,280.904 435.004,280.456 436.796,280.456C438.525,280.456 439.864,280.914 440.811,281.831C441.759,282.747 442.233,284.06 442.233,285.768C442.233,287.414 441.754,288.711 440.796,289.659C439.837,290.607 438.504,291.081 436.796,291.081C435.046,291.081 433.692,290.617 432.733,289.69C431.775,288.763 431.296,287.456 431.296,285.768ZM431.296,259.956C431.296,258.206 431.765,256.883 432.702,255.987C433.64,255.091 435.004,254.643 436.796,254.643C438.525,254.643 439.864,255.102 440.811,256.018C441.759,256.935 442.233,258.247 442.233,259.956C442.233,261.643 441.749,262.951 440.78,263.878C439.811,264.805 438.483,265.268 436.796,265.268C435.046,265.268 433.692,264.81 432.733,263.893C431.775,262.977 431.296,261.664 431.296,259.956Z" style="fill:url(#_Linear9);fill-rule:nonzero;"/>
                <path d="M182.682,354.201C171.807,354.201 166.369,348.233 166.369,336.295C166.369,330.358 167.848,325.821 170.807,322.686C173.765,319.55 178.005,317.983 183.526,317.983C187.567,317.983 191.192,318.774 194.401,320.358L191.588,327.733C190.088,327.129 188.692,326.634 187.401,326.248C186.109,325.863 184.817,325.67 183.526,325.67C178.567,325.67 176.088,329.191 176.088,336.233C176.088,343.066 178.567,346.483 183.526,346.483C185.359,346.483 187.057,346.238 188.619,345.748C190.182,345.259 191.744,344.493 193.307,343.451L193.307,351.608C191.765,352.587 190.208,353.264 188.635,353.639C187.062,354.014 185.078,354.201 182.682,354.201Z" style="fill:url(#_Linear10);fill-rule:nonzero;"/>
                <path d="M216.997,317.983C218.288,317.983 219.361,318.076 220.215,318.264L219.497,327.201C218.726,326.993 217.788,326.889 216.684,326.889C213.642,326.889 211.273,327.67 209.575,329.233C207.877,330.795 207.028,332.983 207.028,335.795L207.028,353.576L197.497,353.576L197.497,318.639L204.715,318.639L206.122,324.514L206.59,324.514C207.674,322.556 209.137,320.978 210.981,319.78C212.825,318.582 214.83,317.983 216.997,317.983Z" style="fill:url(#_Linear11);fill-rule:nonzero;"/>
                <path d="M243.561,353.576L241.718,348.826L241.468,348.826C239.863,350.847 238.212,352.248 236.514,353.03C234.817,353.811 232.603,354.201 229.874,354.201C226.52,354.201 223.879,353.243 221.952,351.326C220.025,349.41 219.061,346.681 219.061,343.139C219.061,339.431 220.358,336.696 222.952,334.936C225.546,333.175 229.457,332.201 234.686,332.014L240.749,331.826L240.749,330.295C240.749,326.754 238.936,324.983 235.311,324.983C232.52,324.983 229.238,325.826 225.468,327.514L222.311,321.076C226.332,318.972 230.79,317.92 235.686,317.92C240.374,317.92 243.968,318.941 246.468,320.983C248.968,323.024 250.218,326.129 250.218,330.295L250.218,353.576L243.561,353.576ZM240.749,337.389L237.061,337.514C234.29,337.597 232.228,338.097 230.874,339.014C229.52,339.931 228.843,341.326 228.843,343.201C228.843,345.889 230.384,347.233 233.468,347.233C235.676,347.233 237.442,346.597 238.764,345.326C240.087,344.056 240.749,342.368 240.749,340.264L240.749,337.389Z" style="fill:url(#_Linear12);fill-rule:nonzero;"/>
                <path d="M275.439,325.795L267.189,325.795L267.189,353.576L257.657,353.576L257.657,325.795L252.407,325.795L252.407,321.201L257.657,318.639L257.657,316.076C257.657,312.097 258.636,309.191 260.595,307.358C262.553,305.524 265.689,304.608 270.001,304.608C273.293,304.608 276.22,305.097 278.782,306.076L276.345,313.076C274.428,312.472 272.657,312.17 271.032,312.17C269.678,312.17 268.699,312.571 268.095,313.373C267.491,314.175 267.189,315.201 267.189,316.451L267.189,318.639L275.439,318.639L275.439,325.795Z" style="fill:url(#_Linear13);fill-rule:nonzero;"/>
                <path d="M291.722,346.608C293.389,346.608 295.389,346.243 297.722,345.514L297.722,352.608C295.347,353.67 292.43,354.201 288.972,354.201C285.16,354.201 282.384,353.238 280.644,351.311C278.904,349.384 278.035,346.493 278.035,342.639L278.035,325.795L273.472,325.795L273.472,321.764L278.722,318.576L281.472,311.201L287.566,311.201L287.566,318.639L297.347,318.639L297.347,325.795L287.566,325.795L287.566,342.639C287.566,343.993 287.946,344.993 288.706,345.639C289.467,346.285 290.472,346.608 291.722,346.608Z" style="fill:url(#_Linear14);fill-rule:nonzero;"/>
                <path d="M328.07,324.764C326.049,324.764 324.466,325.405 323.32,326.686C322.174,327.967 321.518,329.785 321.352,332.139L334.727,332.139C334.685,329.785 334.07,327.967 332.883,326.686C331.695,325.405 330.091,324.764 328.07,324.764ZM329.414,354.201C323.789,354.201 319.393,352.649 316.227,349.545C313.06,346.441 311.477,342.045 311.477,336.358C311.477,330.504 312.94,325.978 315.867,322.78C318.794,319.582 322.841,317.983 328.008,317.983C332.945,317.983 336.789,319.389 339.539,322.201C342.289,325.014 343.664,328.899 343.664,333.858L343.664,338.483L321.133,338.483C321.237,341.191 322.039,343.306 323.539,344.826C325.039,346.347 327.143,347.108 329.852,347.108C331.956,347.108 333.945,346.889 335.82,346.451C337.695,346.014 339.654,345.316 341.695,344.358L341.695,351.733C340.029,352.566 338.247,353.186 336.352,353.592C334.456,353.998 332.143,354.201 329.414,354.201Z" style="fill:url(#_Linear15);fill-rule:nonzero;"/>
                <path d="M369.698,353.576L367.854,348.826L367.604,348.826C366,350.847 364.349,352.248 362.651,353.03C360.953,353.811 358.739,354.201 356.01,354.201C352.656,354.201 350.015,353.243 348.088,351.326C346.161,349.41 345.198,346.681 345.198,343.139C345.198,339.431 346.494,336.696 349.088,334.936C351.682,333.175 355.593,332.201 360.823,332.014L366.885,331.826L366.885,330.295C366.885,326.754 365.073,324.983 361.448,324.983C358.656,324.983 355.375,325.826 351.604,327.514L348.448,321.076C352.468,318.972 356.927,317.92 361.823,317.92C366.51,317.92 370.104,318.941 372.604,320.983C375.104,323.024 376.354,326.129 376.354,330.295L376.354,353.576L369.698,353.576ZM366.885,337.389L363.198,337.514C360.427,337.597 358.364,338.097 357.01,339.014C355.656,339.931 354.979,341.326 354.979,343.201C354.979,345.889 356.52,347.233 359.604,347.233C361.812,347.233 363.578,346.597 364.901,345.326C366.224,344.056 366.885,342.368 366.885,340.264L366.885,337.389Z" style="fill:url(#_Linear16);fill-rule:nonzero;"/>
                <path d="M406.637,343.201C406.637,346.785 405.393,349.514 402.903,351.389C400.413,353.264 396.689,354.201 391.731,354.201C389.189,354.201 387.023,354.03 385.231,353.686C383.439,353.342 381.762,352.837 380.2,352.17L380.2,344.295C381.971,345.129 383.965,345.826 386.184,346.389C388.403,346.951 390.356,347.233 392.044,347.233C395.502,347.233 397.231,346.233 397.231,344.233C397.231,343.483 397.002,342.873 396.544,342.405C396.085,341.936 395.294,341.405 394.169,340.811C393.044,340.217 391.544,339.524 389.669,338.733C386.981,337.608 385.007,336.566 383.747,335.608C382.486,334.649 381.57,333.55 380.997,332.311C380.424,331.071 380.137,329.545 380.137,327.733C380.137,324.629 381.34,322.228 383.747,320.53C386.153,318.832 389.564,317.983 393.981,317.983C398.189,317.983 402.283,318.899 406.262,320.733L403.387,327.608C401.637,326.858 400.002,326.243 398.481,325.764C396.96,325.285 395.408,325.045 393.825,325.045C391.012,325.045 389.606,325.806 389.606,327.326C389.606,328.181 390.059,328.92 390.965,329.545C391.872,330.17 393.856,331.097 396.919,332.326C399.648,333.431 401.648,334.462 402.919,335.42C404.189,336.379 405.127,337.483 405.731,338.733C406.335,339.983 406.637,341.472 406.637,343.201Z" style="fill:url(#_Linear17);fill-rule:nonzero;"/>
                <path d="M405.171,318.639L415.608,318.639L422.202,338.295C422.765,340.004 423.15,342.024 423.358,344.358L423.546,344.358C423.775,342.212 424.223,340.191 424.89,338.295L431.358,318.639L441.577,318.639L426.796,358.045C425.442,361.691 423.509,364.42 420.999,366.233C418.489,368.045 415.556,368.951 412.202,368.951C410.556,368.951 408.942,368.774 407.358,368.42L407.358,360.858C408.504,361.129 409.754,361.264 411.108,361.264C412.796,361.264 414.27,360.748 415.53,359.717C416.791,358.686 417.775,357.129 418.483,355.045L419.046,353.326L405.171,318.639Z" style="fill:url(#_Linear18);fill-rule:nonzero;"/>
                <rect x="439.579" y="332.514" width="16.781" height="7.813" style="fill:url(#_Linear19);fill-rule:nonzero;"/>
                <path d="M474.082,346.608C475.748,346.608 477.748,346.243 480.082,345.514L480.082,352.608C477.707,353.67 474.79,354.201 471.332,354.201C467.519,354.201 464.743,353.238 463.003,351.311C461.264,349.384 460.394,346.493 460.394,342.639L460.394,325.795L455.832,325.795L455.832,321.764L461.082,318.576L463.832,311.201L469.925,311.201L469.925,318.639L479.707,318.639L479.707,325.795L469.925,325.795L469.925,342.639C469.925,343.993 470.306,344.993 471.066,345.639C471.826,346.285 472.832,346.608 474.082,346.608Z" style="fill:url(#_Linear20);fill-rule:nonzero;"/>
                <path d="M490.834,336.045C490.834,339.504 491.402,342.118 492.537,343.889C493.672,345.66 495.521,346.545 498.084,346.545C500.625,346.545 502.454,345.665 503.568,343.905C504.683,342.144 505.24,339.524 505.24,336.045C505.24,332.587 504.678,329.993 503.553,328.264C502.428,326.535 500.584,325.67 498.021,325.67C495.48,325.67 493.646,326.53 492.521,328.248C491.396,329.967 490.834,332.566 490.834,336.045ZM514.99,336.045C514.99,341.733 513.49,346.181 510.49,349.389C507.49,352.597 503.313,354.201 497.959,354.201C494.605,354.201 491.646,353.467 489.084,351.998C486.521,350.53 484.553,348.42 483.178,345.67C481.803,342.92 481.115,339.712 481.115,336.045C481.115,330.337 482.605,325.899 485.584,322.733C488.563,319.566 492.75,317.983 498.146,317.983C501.5,317.983 504.459,318.712 507.021,320.17C509.584,321.629 511.553,323.722 512.928,326.451C514.303,329.181 514.99,332.379 514.99,336.045Z" style="fill:url(#_Linear21);fill-rule:nonzero;"/>
                <rect x="515.867" y="332.514" width="16.781" height="7.813" style="fill:url(#_Linear22);fill-rule:nonzero;"/>
                <path d="M560.401,353.576L559.12,349.108L558.62,349.108C557.599,350.733 556.151,351.988 554.276,352.873C552.401,353.759 550.265,354.201 547.87,354.201C543.765,354.201 540.672,353.103 538.588,350.905C536.505,348.707 535.463,345.545 535.463,341.42L535.463,318.639L544.995,318.639L544.995,339.045C544.995,341.566 545.442,343.457 546.338,344.717C547.234,345.978 548.661,346.608 550.62,346.608C553.286,346.608 555.213,345.717 556.401,343.936C557.588,342.155 558.182,339.201 558.182,335.076L558.182,318.639L567.713,318.639L567.713,353.576L560.401,353.576Z" style="fill:url(#_Linear23);fill-rule:nonzero;"/>
                <path d="M598.184,343.201C598.184,346.785 596.94,349.514 594.45,351.389C591.96,353.264 588.236,354.201 583.278,354.201C580.736,354.201 578.57,354.03 576.778,353.686C574.986,353.342 573.309,352.837 571.747,352.17L571.747,344.295C573.518,345.129 575.512,345.826 577.731,346.389C579.95,346.951 581.903,347.233 583.591,347.233C587.049,347.233 588.778,346.233 588.778,344.233C588.778,343.483 588.549,342.873 588.091,342.405C587.632,341.936 586.841,341.405 585.716,340.811C584.591,340.217 583.091,339.524 581.216,338.733C578.528,337.608 576.554,336.566 575.294,335.608C574.033,334.649 573.117,333.55 572.544,332.311C571.971,331.071 571.684,329.545 571.684,327.733C571.684,324.629 572.887,322.228 575.294,320.53C577.7,318.832 581.111,317.983 585.528,317.983C589.736,317.983 593.83,318.899 597.809,320.733L594.934,327.608C593.184,326.858 591.549,326.243 590.028,325.764C588.507,325.285 586.955,325.045 585.372,325.045C582.559,325.045 581.153,325.806 581.153,327.326C581.153,328.181 581.606,328.92 582.512,329.545C583.419,330.17 585.403,331.097 588.466,332.326C591.195,333.431 593.195,334.462 594.466,335.42C595.736,336.379 596.674,337.483 597.278,338.733C597.882,339.983 598.184,341.472 598.184,343.201Z" style="fill:url(#_Linear24);fill-rule:nonzero;"/>
                <path d="M616.187,324.764C614.166,324.764 612.582,325.405 611.437,326.686C610.291,327.967 609.634,329.785 609.468,332.139L622.843,332.139C622.801,329.785 622.187,327.967 620.999,326.686C619.812,325.405 618.207,324.764 616.187,324.764ZM617.53,354.201C611.905,354.201 607.509,352.649 604.343,349.545C601.176,346.441 599.593,342.045 599.593,336.358C599.593,330.504 601.056,325.978 603.983,322.78C606.911,319.582 610.957,317.983 616.124,317.983C621.062,317.983 624.905,319.389 627.655,322.201C630.405,325.014 631.78,328.899 631.78,333.858L631.78,338.483L609.249,338.483C609.353,341.191 610.155,343.306 611.655,344.826C613.155,346.347 615.259,347.108 617.968,347.108C620.072,347.108 622.062,346.889 623.937,346.451C625.812,346.014 627.77,345.316 629.812,344.358L629.812,351.733C628.145,352.566 626.364,353.186 624.468,353.592C622.572,353.998 620.259,354.201 617.53,354.201Z" style="fill:url(#_Linear25);fill-rule:nonzero;"/>
                <path d="M663.066,346.608C664.733,346.608 666.733,346.243 669.066,345.514L669.066,352.608C666.691,353.67 663.774,354.201 660.316,354.201C656.504,354.201 653.728,353.238 651.988,351.311C650.248,349.384 649.379,346.493 649.379,342.639L649.379,325.795L644.816,325.795L644.816,321.764L650.066,318.576L652.816,311.201L658.91,311.201L658.91,318.639L668.691,318.639L668.691,325.795L658.91,325.795L658.91,342.639C658.91,343.993 659.29,344.993 660.05,345.639C660.811,346.285 661.816,346.608 663.066,346.608Z" style="fill:url(#_Linear26);fill-rule:nonzero;"/>
                <path d="M704.475,353.576L694.943,353.576L694.943,333.17C694.943,328.129 693.068,325.608 689.318,325.608C686.652,325.608 684.725,326.514 683.537,328.326C682.35,330.139 681.756,333.076 681.756,337.139L681.756,353.576L672.225,353.576L672.225,304.951L681.756,304.951L681.756,314.858C681.756,315.629 681.683,317.441 681.537,320.295L681.318,323.108L681.818,323.108C683.943,319.691 687.318,317.983 691.943,317.983C696.047,317.983 699.162,319.087 701.287,321.295C703.412,323.504 704.475,326.67 704.475,330.795L704.475,353.576Z" style="fill:url(#_Linear27);fill-rule:nonzero;"/>
                <path d="M709.977,309.608C709.977,306.504 711.706,304.951 715.164,304.951C718.623,304.951 720.352,306.504 720.352,309.608C720.352,311.087 719.92,312.238 719.055,313.061C718.19,313.884 716.893,314.295 715.164,314.295C711.706,314.295 709.977,312.733 709.977,309.608ZM719.914,353.576L710.383,353.576L710.383,318.639L719.914,318.639L719.914,353.576Z" style="fill:url(#_Linear28);fill-rule:nonzero;"/>
                <path d="M758.26,353.576L748.729,353.576L748.729,333.17C748.729,330.649 748.281,328.759 747.385,327.498C746.489,326.238 745.062,325.608 743.104,325.608C740.437,325.608 738.51,326.498 737.323,328.28C736.135,330.061 735.542,333.014 735.542,337.139L735.542,353.576L726.01,353.576L726.01,318.639L733.292,318.639L734.573,323.108L735.104,323.108C736.167,321.42 737.63,320.144 739.495,319.28C741.359,318.415 743.479,317.983 745.854,317.983C749.917,317.983 753,319.082 755.104,321.28C757.208,323.478 758.26,326.649 758.26,330.795L758.26,353.576Z" style="fill:url(#_Linear29);fill-rule:nonzero;"/>
                <path d="M794.575,318.639L794.575,323.483L789.106,324.889C790.106,326.451 790.606,328.201 790.606,330.139C790.606,333.889 789.299,336.811 786.684,338.905C784.07,340.998 780.44,342.045 775.794,342.045L774.075,341.951L772.669,341.795C771.69,342.545 771.2,343.379 771.2,344.295C771.2,345.67 772.95,346.358 776.45,346.358L782.388,346.358C786.221,346.358 789.143,347.181 791.153,348.826C793.164,350.472 794.169,352.889 794.169,356.076C794.169,360.16 792.466,363.326 789.059,365.576C785.653,367.826 780.763,368.951 774.388,368.951C769.513,368.951 765.789,368.103 763.216,366.405C760.643,364.707 759.356,362.326 759.356,359.264C759.356,357.16 760.013,355.399 761.325,353.983C762.638,352.566 764.565,351.556 767.106,350.951C766.127,350.535 765.273,349.853 764.544,348.905C763.815,347.957 763.45,346.951 763.45,345.889C763.45,344.556 763.835,343.446 764.606,342.561C765.377,341.675 766.492,340.806 767.95,339.951C766.117,339.16 764.664,337.889 763.591,336.139C762.518,334.389 761.981,332.326 761.981,329.951C761.981,326.139 763.221,323.191 765.7,321.108C768.179,319.024 771.721,317.983 776.325,317.983C777.304,317.983 778.466,318.071 779.809,318.248C781.153,318.425 782.013,318.556 782.388,318.639L794.575,318.639ZM767.606,358.514C767.606,359.826 768.237,360.858 769.497,361.608C770.757,362.358 772.523,362.733 774.794,362.733C778.21,362.733 780.888,362.264 782.825,361.326C784.763,360.389 785.731,359.108 785.731,357.483C785.731,356.17 785.158,355.264 784.013,354.764C782.867,354.264 781.096,354.014 778.7,354.014L773.763,354.014C772.013,354.014 770.549,354.425 769.372,355.248C768.195,356.071 767.606,357.16 767.606,358.514ZM771.075,330.076C771.075,331.972 771.507,333.472 772.372,334.576C773.237,335.681 774.554,336.233 776.325,336.233C778.117,336.233 779.429,335.681 780.263,334.576C781.096,333.472 781.513,331.972 781.513,330.076C781.513,325.868 779.783,323.764 776.325,323.764C772.825,323.764 771.075,325.868 771.075,330.076Z" style="fill:url(#_Linear30);fill-rule:nonzero;"/>
                <path d="M820.796,343.201C820.796,346.785 819.551,349.514 817.062,351.389C814.572,353.264 810.848,354.201 805.89,354.201C803.348,354.201 801.181,354.03 799.39,353.686C797.598,353.342 795.921,352.837 794.359,352.17L794.359,344.295C796.129,345.129 798.124,345.826 800.343,346.389C802.562,346.951 804.515,347.233 806.202,347.233C809.661,347.233 811.39,346.233 811.39,344.233C811.39,343.483 811.161,342.873 810.702,342.405C810.244,341.936 809.452,341.405 808.327,340.811C807.202,340.217 805.702,339.524 803.827,338.733C801.14,337.608 799.166,336.566 797.905,335.608C796.645,334.649 795.728,333.55 795.155,332.311C794.583,331.071 794.296,329.545 794.296,327.733C794.296,324.629 795.499,322.228 797.905,320.53C800.312,318.832 803.723,317.983 808.14,317.983C812.348,317.983 816.442,318.899 820.421,320.733L817.546,327.608C815.796,326.858 814.161,326.243 812.64,325.764C811.119,325.285 809.567,325.045 807.984,325.045C805.171,325.045 803.765,325.806 803.765,327.326C803.765,328.181 804.218,328.92 805.124,329.545C806.03,330.17 808.015,331.097 811.077,332.326C813.806,333.431 815.806,334.462 817.077,335.42C818.348,336.379 819.286,337.483 819.89,338.733C820.494,339.983 820.796,341.472 820.796,343.201Z" style="fill:url(#_Linear31);fill-rule:nonzero;"/>
                <path d="M822.986,349.108C822.986,347.358 823.455,346.035 824.392,345.139C825.33,344.243 826.694,343.795 828.486,343.795C830.215,343.795 831.554,344.254 832.501,345.17C833.449,346.087 833.923,347.399 833.923,349.108C833.923,350.754 833.444,352.05 832.486,352.998C831.527,353.946 830.194,354.42 828.486,354.42C826.736,354.42 825.382,353.957 824.423,353.03C823.465,352.103 822.986,350.795 822.986,349.108Z" style="fill:url(#_Linear32);fill-rule:nonzero;"/>
            </g>
        </g>
    </g>
    <defs>
        <linearGradient id="_Linear1" x1="0" y1="0" x2="1" y2="0" gradientUnits="userSpaceOnUse" gradientTransform="matrix(570.752,0,0,570.752,63.7218,274.269)"><stop offset="0" style="stop-color:rgb(61,250,178);stop-opacity:1"/><stop offset="1" style="stop-color:rgb(1,94,191);stop-opacity:1"/></linearGradient>
        <linearGradient id="_Linear2" x1="0" y1="0" x2="1" y2="0" gradientUnits="userSpaceOnUse" gradientTransform="matrix(570.752,0,0,570.752,63.7218,274.269)"><stop offset="0" style="stop-color:rgb(61,250,178);stop-opacity:1"/><stop offset="1" style="stop-color:rgb(1,94,191);stop-opacity:1"/></linearGradient>
        <linearGradient id="_Linear3" x1="0" y1="0" x2="1" y2="0" gradientUnits="userSpaceOnUse" gradientTransform="matrix(570.752,0,0,570.752,63.7218,274.269)"><stop offset="0" style="stop-color:rgb(61,250,178);stop-opacity:1"/><stop offset="1" style="stop-color:rgb(1,94,191);stop-opacity:1"/></linearGradient>
        <linearGradient id="_Linear4" x1="0" y1="0" x2="1" y2="0" gradientUnits="userSpaceOnUse" gradientTransform="matrix(570.752,0,0,570.752,63.7218,274.269)"><stop offset="0" style="stop-color:rgb(61,250,178);stop-opacity:1"/><stop offset="1" style="stop-color:rgb(1,94,191);stop-opacity:1"/></linearGradient>
        <linearGradient id="_Linear5" x1="0" y1="0" x2="1" y2="0" gradientUnits="userSpaceOnUse" gradientTransform="matrix(570.752,0,0,570.752,63.7218,274.269)"><stop offset="0" style="stop-color:rgb(61,250,178);stop-opacity:1"/><stop offset="1" style="stop-color:rgb(1,94,191);stop-opacity:1"/></linearGradient>
        <linearGradient id="_Linear6" x1="0" y1="0" x2="1" y2="0" gradientUnits="userSpaceOnUse" gradientTransform="matrix(570.752,0,0,570.752,63.7218,274.269)"><stop offset="0" style="stop-color:rgb(61,250,178);stop-opacity:1"/><stop offset="1" style="stop-color:rgb(1,94,191);stop-opacity:1"/></linearGradient>
        <linearGradient id="_Linear7" x1="0" y1="0" x2="1" y2="0" gradientUnits="userSpaceOnUse" gradientTransform="matrix(570.752,0,0,570.752,63.7218,274.269)"><stop offset="0" style="stop-color:rgb(61,250,178);stop-opacity:1"/><stop offset="1" style="stop-color:rgb(1,94,191);stop-opacity:1"/></linearGradient>
        <linearGradient id="_Linear8" x1="0" y1="0" x2="1" y2="0" gradientUnits="userSpaceOnUse" gradientTransform="matrix(570.752,0,0,570.752,63.7218,274.269)"><stop offset="0" style="stop-color:rgb(61,250,178);stop-opacity:1"/><stop offset="1" style="stop-color:rgb(1,94,191);stop-opacity:1"/></linearGradient>
        <linearGradient id="_Linear9" x1="0" y1="0" x2="1" y2="0" gradientUnits="userSpaceOnUse" gradientTransform="matrix(570.752,0,0,570.752,63.7218,274.269)"><stop offset="0" style="stop-color:rgb(61,250,178);stop-opacity:1"/><stop offset="1" style="stop-color:rgb(1,94,191);stop-opacity:1"/></linearGradient>
        <linearGradient id="_Linear10" x1="0" y1="0" x2="1" y2="0" gradientUnits="userSpaceOnUse" gradientTransform="matrix(570.752,0,0,570.752,63.7218,274.269)"><stop offset="0" style="stop-color:rgb(61,250,178);stop-opacity:1"/><stop offset="1" style="stop-color:rgb(1,94,191);stop-opacity:1"/></linearGradient>
        <linearGradient id="_Linear11" x1="0" y1="0" x2="1" y2="0" gradientUnits="userSpaceOnUse" gradientTransform="matrix(570.752,0,0,570.752,63.7218,274.269)"><stop offset="0" style="stop-color:rgb(61,250,178);stop-opacity:1"/><stop offset="1" style="stop-color:rgb(1,94,191);stop-opacity:1"/></linearGradient>
        <linearGradient id="_Linear12" x1="0" y1="0" x2="1" y2="0" gradientUnits="userSpaceOnUse" gradientTransform="matrix(570.752,0,0,570.752,63.7218,274.269)"><stop offset="0" style="stop-color:rgb(61,250,178);stop-opacity:1"/><stop offset="1" style="stop-color:rgb(1,94,191);stop-opacity:1"/></linearGradient>
        <linearGradient id="_Linear13" x1="0" y1="0" x2="1" y2="0" gradientUnits="userSpaceOnUse" gradientTransform="matrix(570.752,0,0,570.752,63.7218,274.269)"><stop offset="0" style="stop-color:rgb(61,250,178);stop-opacity:1"/><stop offset="1" style="stop-color:rgb(1,94,191);stop-opacity:1"/></linearGradient>
        <linearGradient id="_Linear14" x1="0" y1="0" x2="1" y2="0" gradientUnits="userSpaceOnUse" gradientTransform="matrix(570.752,0,0,570.752,63.7218,274.269)"><stop offset="0" style="stop-color:rgb(61,250,178);stop-opacity:1"/><stop offset="1" style="stop-color:rgb(1,94,191);stop-opacity:1"/></linearGradient>
        <linearGradient id="_Linear15" x1="0" y1="0" x2="1" y2="0" gradientUnits="userSpaceOnUse" gradientTransform="matrix(570.752,0,0,570.752,63.7218,274.269)"><stop offset="0" style="stop-color:rgb(61,250,178);stop-opacity:1"/><stop offset="1" style="stop-color:rgb(1,94,191);stop-opacity:1"/></linearGradient>
        <linearGradient id="_Linear16" x1="0" y1="0" x2="1" y2="0" gradientUnits="userSpaceOnUse" gradientTransform="matrix(570.752,0,0,570.752,63.7218,274.269)"><stop offset="0" style="stop-color:rgb(61,250,178);stop-opacity:1"/><stop offset="1" style="stop-color:rgb(1,94,191);stop-opacity:1"/></linearGradient>
        <linearGradient id="_Linear17" x1="0" y1="0" x2="1" y2="0" gradientUnits="userSpaceOnUse" gradientTransform="matrix(570.752,0,0,570.752,63.7218,274.269)"><stop offset="0" style="stop-color:rgb(61,250,178);stop-opacity:1"/><stop offset="1" style="stop-color:rgb(1,94,191);stop-opacity:1"/></linearGradient>
        <linearGradient id="_Linear18" x1="0" y1="0" x2="1" y2="0" gradientUnits="userSpaceOnUse" gradientTransform="matrix(570.752,0,0,570.752,63.7218,274.269)"><stop offset="0" style="stop-color:rgb(61,250,178);stop-opacity:1"/><stop offset="1" style="stop-color:rgb(1,94,191);stop-opacity:1"/></linearGradient>
        <linearGradient id="_Linear19" x1="0" y1="0" x2="1" y2="0" gradientUnits="userSpaceOnUse" gradientTransform="matrix(570.752,0,0,570.752,63.7218,274.269)"><stop offset="0" style="stop-color:rgb(61,250,178);stop-opacity:1"/><stop offset="1" style="stop-color:rgb(1,94,191);stop-opacity:1"/></linearGradient>
        <linearGradient id="_Linear20" x1="0" y1="0" x2="1" y2="0" gradientUnits="userSpaceOnUse" gradientTransform="matrix(570.752,0,0,570.752,63.7218,274.269)"><stop offset="0" style="stop-color:rgb(61,250,178);stop-opacity:1"/><stop offset="1" style="stop-color:rgb(1,94,191);stop-opacity:1"/></linearGradient>
        <linearGradient id="_Linear21" x1="0" y1="0" x2="1" y2="0" gradientUnits="userSpaceOnUse" gradientTransform="matrix(570.752,0,0,570.752,63.7218,274.269)"><stop offset="0" style="stop-color:rgb(61,250,178);stop-opacity:1"/><stop offset="1" style="stop-color:rgb(1,94,191);stop-opacity:1"/></linearGradient>
        <linearGradient id="_Linear22" x1="0" y1="0" x2="1" y2="0" gradientUnits="userSpaceOnUse" gradientTransform="matrix(570.752,0,0,570.752,63.7218,274.269)"><stop offset="0" style="stop-color:rgb(61,250,178);stop-opacity:1"/><stop offset="1" style="stop-color:rgb(1,94,191);stop-opacity:1"/></linearGradient>
        <linearGradient id="_Linear23" x1="0" y1="0" x2="1" y2="0" gradientUnits="userSpaceOnUse" gradientTransform="matrix(570.752,0,0,570.752,63.7218,274.269)"><stop offset="0" style="stop-color:rgb(61,250,178);stop-opacity:1"/><stop offset="1" style="stop-color:rgb(1,94,191);stop-opacity:1"/></linearGradient>
        <linearGradient id="_Linear24" x1="0" y1="0" x2="1" y2="0" gradientUnits="userSpaceOnUse" gradientTransform="matrix(570.752,0,0,570.752,63.7218,274.269)"><stop offset="0" style="stop-color:rgb(61,250,178);stop-opacity:1"/><stop offset="1" style="stop-color:rgb(1,94,191);stop-opacity:1"/></linearGradient>
        <linearGradient id="_Linear25" x1="0" y1="0" x2="1" y2="0" gradientUnits="userSpaceOnUse" gradientTransform="matrix(570.752,0,0,570.752,63.7218,274.269)"><stop offset="0" style="stop-color:rgb(61,250,178);stop-opacity:1"/><stop offset="1" style="stop-color:rgb(1,94,191);stop-opacity:1"/></linearGradient>
        <linearGradient id="_Linear26" x1="0" y1="0" x2="1" y2="0" gradientUnits="userSpaceOnUse" gradientTransform="matrix(570.752,0,0,570.752,63.7218,274.269)"><stop offset="0" style="stop-color:rgb(61,250,178);stop-opacity:1"/><stop offset="1" style="stop-color:rgb(1,94,191);stop-opacity:1"/></linearGradient>
        <linearGradient id="_Linear27" x1="0" y1="0" x2="1" y2="0" gradientUnits="userSpaceOnUse" gradientTransform="matrix(570.752,0,0,570.752,63.7218,274.269)"><stop offset="0" style="stop-color:rgb(61,250,178);stop-opacity:1"/><stop offset="1" style="stop-color:rgb(1,94,191);stop-opacity:1"/></linearGradient>
        <linearGradient id="_Linear28" x1="0" y1="0" x2="1" y2="0" gradientUnits="userSpaceOnUse" gradientTransform="matrix(570.752,0,0,570.752,63.7218,274.269)"><stop offset="0" style="stop-color:rgb(61,250,178);stop-opacity:1"/><stop offset="1" style="stop-color:rgb(1,94,191);stop-opacity:1"/></linearGradient>
        <linearGradient id="_Linear29" x1="0" y1="0" x2="1" y2="0" gradientUnits="userSpaceOnUse" gradientTransform="matrix(570.752,0,0,570.752,63.7218,274.269)"><stop offset="0" style="stop-color:rgb(61,250,178);stop-opacity:1"/><stop offset="1" style="stop-color:rgb(1,94,191);stop-opacity:1"/></linearGradient>
        <linearGradient id="_Linear30" x1="0" y1="0" x2="1" y2="0" gradientUnits="userSpaceOnUse" gradientTransform="matrix(570.752,0,0,570.752,63.7218,274.269)"><stop offset="0" style="stop-color:rgb(61,250,178);stop-opacity:1"/><stop offset="1" style="stop-color:rgb(1,94,191);stop-opacity:1"/></linearGradient>
        <linearGradient id="_Linear31" x1="0" y1="0" x2="1" y2="0" gradientUnits="userSpaceOnUse" gradientTransform="matrix(570.752,0,0,570.752,63.7218,274.269)"><stop offset="0" style="stop-color:rgb(61,250,178);stop-opacity:1"/><stop offset="1" style="stop-color:rgb(1,94,191);stop-opacity:1"/></linearGradient>
        <linearGradient id="_Linear32" x1="0" y1="0" x2="1" y2="0" gradientUnits="userSpaceOnUse" gradientTransform="matrix(570.752,0,0,570.752,63.7218,274.269)"><stop offset="0" style="stop-color:rgb(61,250,178);stop-opacity:1"/><stop offset="1" style="stop-color:rgb(1,94,191);stop-opacity:1"/></linearGradient>
    </defs>
</svg>
